<?xml version="1.0" encoding="UTF-8"?>
<!DOCTYPE svg PUBLIC "-//W3C//DTD SVG 1.1//EN" "http://www.w3.org/Graphics/SVG/1.1/DTD/svg11.dtd">
<!-- Creator: CorelDRAW -->
<svg xmlns="http://www.w3.org/2000/svg" xml:space="preserve" width="50.2579mm" height="24.9532mm" version="1.1" style="shape-rendering:geometricPrecision; text-rendering:geometricPrecision; image-rendering:optimizeQuality; fill-rule:evenodd; clip-rule:evenodd"
viewBox="0 0 2266.6 1125.38"
 xmlns:xlink="http://www.w3.org/1999/xlink"
 xmlns:xodm="http://www.corel.com/coreldraw/odm/2003">
 <defs>
  <style type="text/css">
   <![CDATA[
    .fil1 {fill:#E31E24}
    .fil2 {fill:#FEFEFE;fill-rule:nonzero}
    .fil3 {fill:#E31E24;fill-rule:nonzero}
    .fil0 {fill:white;fill-rule:nonzero}
   ]]>
  </style>
 </defs>
 <g id="Layer_x0020_1">
  <metadata id="CorelCorpID_0Corel-Layer"/>
  <g id="_2394172713200">
   <path class="fil0" d="M89.26 679.14l-89.23 0 0 -431.2 89.23 0 0 431.2zm83.15 -431.2l93.82 0 172.68 300.44 0 -300.44 83.24 0 0 431.2 -89.43 0 -177.07 -306.93 0 306.93 -83.24 0 0 -431.2zm520.53 74.26l0 282.67 83.55 0c42.82,0 72.56,-21.06 89.43,-63.18 9.28,-23.15 13.87,-50.61 13.87,-82.55 0,-44.12 -6.89,-77.95 -20.76,-101.51 -13.78,-23.65 -41.32,-35.43 -82.55,-35.43l-83.55 0zm98.92 -74.26c26.75,0.4 49.11,3.49 66.87,9.38 30.34,9.88 54.9,28.15 73.67,54.7 15.07,21.46 25.35,44.62 30.84,69.57 5.49,24.95 8.19,48.81 8.19,71.46 0,57.29 -11.58,105.8 -34.63,145.63 -31.24,53.6 -79.65,80.45 -144.93,80.45l-186.36 0 0 -431.2 186.36 0zm437.59 367.11c35.93,0 64.38,-13.17 85.44,-39.53 21.06,-26.45 31.54,-63.98 31.54,-112.59 0,-48.51 -10.48,-85.94 -31.54,-112.39 -21.06,-26.45 -49.51,-39.72 -85.44,-39.72 -35.84,0 -64.38,13.17 -85.74,39.53 -21.36,26.45 -32.04,63.98 -32.04,112.59 0,48.61 10.68,86.14 32.04,112.59 21.36,26.35 49.91,39.53 85.74,39.53zm206.21 -152.12c0,77.46 -21.76,136.75 -65.18,177.87 -32.64,33.54 -79.65,50.31 -141.24,50.31 -61.68,0 -108.69,-16.77 -141.34,-50.31 -43.62,-41.12 -65.48,-100.41 -65.48,-177.87 0,-78.95 21.86,-138.24 65.48,-177.87 32.64,-33.54 79.65,-50.31 141.34,-50.31 61.59,0 108.6,16.77 141.24,50.31 43.42,39.62 65.18,98.92 65.18,177.87zm159.21 -140.74l0 116.19 97.02 0c19.27,0 33.64,-2.4 43.32,-7.09 17.07,-8.19 25.55,-24.35 25.55,-48.61 0,-26.25 -8.28,-43.82 -24.76,-52.9 -9.28,-5.09 -23.15,-7.59 -41.62,-7.59l-99.51 0zm118.28 -74.26c29.45,0.6 52.1,4.29 67.97,11.08 15.87,6.89 29.35,16.87 40.43,30.14 9.08,10.88 16.37,22.96 21.66,36.13 5.29,13.28 7.99,28.35 7.99,45.32 0,20.46 -5.19,40.53 -15.47,60.29 -10.38,19.76 -27.45,33.73 -51.2,41.92 19.86,7.99 33.93,19.37 42.22,34.14 8.28,14.68 12.48,37.23 12.48,67.48l0 29.04c0,19.76 0.8,33.14 2.39,40.12 2.39,11.18 7.99,19.37 16.77,24.66l0 10.88 -99.71 0c-2.79,-9.58 -4.79,-17.27 -5.99,-23.16 -2.39,-12.08 -3.69,-24.55 -3.89,-37.23l-0.6 -40.22c-0.4,-27.55 -5.09,-45.92 -14.27,-55.1 -9.08,-9.18 -26.15,-13.77 -51.21,-13.77l-87.84 0 0 169.48 -88.04 0 0 -431.2 206.32 0zm542.89 76.06l-228.07 0 0 92.23 209.41 0 0 74.86 -209.41 0 0 110.8 238.65 0 0 77.26 -326.69 0 0 -431.2 316.11 0 0 76.06z"/>
   <g>
    <path class="fil1" d="M513.3 794.86l1226.59 0c71.03,0 129.14,58.11 129.14,129.14l0 0c0,71.03 -58.11,129.14 -129.14,129.14l-1226.59 0c-71.03,0 -129.14,-58.11 -129.14,-129.14l0 -0c0,-71.03 58.11,-129.14 129.14,-129.14z"/>
    <path class="fil2" d="M533.84 904.64c4.06,2.67 7.13,4.69 9.23,6.09 2.09,1.39 4.88,3.36 8.37,5.9 3.49,2.54 6.15,4.82 7.99,6.85 1.84,2.03 3.77,4.38 5.8,7.04 2.03,2.67 3.49,5.46 4.38,8.37 0.89,2.92 1.33,5.96 1.33,9.13 0,11.93 -4.28,21.54 -12.84,28.83 -8.56,7.3 -19.83,10.95 -33.78,10.95 -8,0 -15.32,-1.05 -21.98,-3.14 -6.66,-2.09 -11.92,-4.69 -15.79,-7.8 -3.87,-3.11 -6.79,-6.31 -8.75,-9.61 -1.97,-3.3 -2.89,-6.31 -2.76,-9.04 0.13,-2.73 1.3,-4.95 3.52,-6.66 2.22,-1.71 4.79,-2.48 7.71,-2.28 2.92,0.19 5.39,1.49 7.42,3.9 1.27,1.52 2.54,3.74 3.81,6.66 1.27,2.92 2.48,5.58 3.62,7.99 1.14,2.41 2.57,4.82 4.28,7.23 1.71,2.41 4.12,4.32 7.23,5.71 3.11,1.4 6.82,2.09 11.13,2.09 4.32,0 8.41,-1.43 12.28,-4.28 3.87,-2.85 5.8,-6.69 5.8,-11.51 0,-2.67 -0.6,-5.29 -1.81,-7.9 -1.2,-2.6 -2.54,-4.82 -4,-6.66 -1.46,-1.84 -3.77,-4.03 -6.95,-6.57 -3.17,-2.53 -5.77,-4.5 -7.8,-5.9 -2.03,-1.39 -5.08,-3.36 -9.14,-5.9 -4.57,-3.04 -8.05,-5.39 -10.47,-7.04 -2.41,-1.65 -5.48,-4.03 -9.23,-7.14 -3.74,-3.11 -6.53,-5.93 -8.37,-8.47 -1.84,-2.54 -3.49,-5.58 -4.95,-9.14 -1.46,-3.55 -2.19,-7.23 -2.19,-11.04 0,-8.63 2.12,-16.11 6.37,-22.46 4.25,-6.34 9.58,-11 15.99,-13.99 6.4,-2.98 13.23,-4.47 20.46,-4.47 18.77,0 32.54,5.02 41.3,15.04 5.45,6.21 7.42,12.11 5.9,17.7 -1.01,4.06 -3.55,6.35 -7.61,6.85 -2.03,0.26 -3.81,0.09 -5.33,-0.47 -1.52,-0.57 -2.76,-1.3 -3.71,-2.19 -0.95,-0.89 -1.87,-2.32 -2.76,-4.28 -0.89,-1.97 -1.56,-3.59 -2,-4.85 -0.45,-1.27 -0.98,-3.17 -1.62,-5.71 -0.25,-0.89 -0.44,-1.52 -0.57,-1.9 -2.66,-9.89 -10.4,-14.84 -23.22,-14.84 -6.09,0 -10.85,1.78 -14.27,5.33 -2.67,2.67 -3.93,5.9 -3.81,9.71 0,2.67 0.66,5.3 2,7.9 1.33,2.6 2.82,4.88 4.47,6.85 1.65,1.97 4.13,4.25 7.42,6.85 3.3,2.6 6.03,4.6 8.19,5.99 2.16,1.39 5.39,3.49 9.71,6.28zm93.82 -18.08c13.95,0 25.34,4.73 34.16,14.17 8.82,9.45 13.23,21.67 13.23,36.63 0,15.48 -4.32,27.85 -12.94,37.11 -8.62,9.26 -20.11,13.89 -34.44,13.89 -5.71,0 -11.39,-1.24 -17.03,-3.71 -5.65,-2.47 -10.72,-5.9 -15.23,-10.27 -4.5,-4.38 -8.15,-9.8 -10.94,-16.27 -2.79,-6.47 -4.19,-13.39 -4.19,-20.75 0,-15.86 4.19,-28.29 12.56,-37.3 8.37,-9.01 19.98,-13.51 34.83,-13.51zm15.79 91.34c2.54,-0.89 4.28,-2.72 5.24,-5.52 0.95,-2.79 1.17,-6.47 0.66,-11.04 -0.51,-4.57 -1.3,-9.13 -2.38,-13.7 -1.08,-4.57 -2.57,-9.96 -4.47,-16.18 -3.17,-10.53 -7.13,-19.22 -11.89,-26.07 -4.76,-6.85 -9.29,-10.27 -13.61,-10.27 -0.51,0 -1.08,0.06 -1.71,0.19 -1.65,0.38 -3.04,1.58 -4.19,3.62 -2.03,4.56 -2.7,10.72 -2,18.46 0.69,7.74 2.31,15.48 4.85,23.22 3.42,10.15 7.58,18.96 12.47,26.45 4.88,7.49 9.74,11.23 14.56,11.23 0.88,0 1.71,-0.13 2.47,-0.38zm152.82 0.38c1.01,-0.26 1.84,-0.03 2.47,0.66 0.64,0.7 0.83,1.52 0.57,2.48 -0.26,0.95 -0.95,1.68 -2.09,2.19 -1.02,0.38 -2.79,0.83 -5.33,1.33 -2.54,0.51 -5.71,0.79 -9.52,0.86 -3.81,0.06 -7.42,-0.29 -10.85,-1.05 -3.43,-0.76 -6.53,-2.41 -9.33,-4.95 -2.79,-2.53 -4.37,-5.96 -4.76,-10.27 -2.66,4.56 -6.59,8.43 -11.8,11.61 -5.2,3.17 -11.29,4.76 -18.27,4.76 -9.26,0 -16.87,-3.05 -22.83,-9.14 -5.97,-6.09 -8.95,-13.39 -8.95,-21.89 -0.13,-14.59 -0.19,-24.99 -0.19,-31.21 0,-3.17 -0.13,-5.77 -0.38,-7.8 -0.26,-2.03 -0.6,-3.55 -1.05,-4.57 -0.45,-1.01 -1.05,-1.71 -1.81,-2.09 -0.76,-0.38 -1.46,-0.54 -2.09,-0.47 -0.64,0.06 -1.59,0.16 -2.85,0.28 -1.27,0.13 -2.29,0.19 -3.04,0.19 -1.52,0 -2.51,-0.83 -2.95,-2.47 -0.44,-1.65 0.04,-2.85 1.43,-3.62 5.84,-3.81 11.96,-7.04 18.36,-9.71 6.41,-2.67 11.64,-4 15.7,-4 2.67,0 4.92,0.92 6.76,2.76 1.84,1.84 2.76,4.09 2.76,6.76l0 23.79 0 26.64c0,6.21 1.2,11.29 3.62,15.23 2.41,3.93 5.9,5.9 10.47,5.9 3.55,0 6.91,-1.46 10.08,-4.38 3.17,-2.92 5.39,-6.21 6.66,-9.89l0 -26.83c0,-4.19 -0.13,-7.68 -0.38,-10.47 -0.26,-2.79 -0.57,-4.88 -0.95,-6.28 -0.38,-1.4 -0.98,-2.41 -1.81,-3.04 -0.83,-0.64 -1.52,-0.95 -2.09,-0.95 -0.57,0 -1.52,0.09 -2.85,0.28 -1.33,0.19 -2.38,0.28 -3.14,0.28 -1.65,-0.13 -2.66,-0.98 -3.04,-2.57 -0.38,-1.59 0.13,-2.76 1.52,-3.52 5.71,-3.81 11.77,-7.04 18.18,-9.71 6.4,-2.67 11.7,-4 15.89,-4 2.54,0 4.73,0.92 6.57,2.76 1.84,1.84 2.76,4.09 2.76,6.76l0 68.51c0,4.19 0.86,7.14 2.57,8.85 1.71,1.71 3.71,2.38 6,2zm122.94 0c1.14,-0.26 2.03,-0.03 2.67,0.66 0.63,0.7 0.82,1.52 0.57,2.48 -0.25,0.95 -1.01,1.68 -2.28,2.19 -1.01,0.51 -2.89,1.01 -5.61,1.52 -2.73,0.51 -6.18,0.76 -10.37,0.76 -4.19,0 -8.12,-0.45 -11.8,-1.33 -3.68,-0.89 -6.85,-2.85 -9.52,-5.9 -2.67,-3.04 -4,-7.04 -4,-11.99l0 -40.72c0,-6.09 -1.17,-11.14 -3.52,-15.13 -2.35,-4 -5.8,-5.99 -10.37,-5.99 -3.17,0 -6.25,1.2 -9.23,3.61 -2.98,2.41 -5.23,5.27 -6.76,8.56l0 48.15c0,1.4 0.06,2.67 0.19,3.81 0.13,1.14 0.32,2.12 0.57,2.95 0.25,0.83 0.47,1.56 0.67,2.19 0.19,0.64 0.54,1.21 1.05,1.71 0.51,0.51 0.86,0.92 1.05,1.24 0.19,0.32 0.63,0.64 1.33,0.95 0.7,0.32 1.14,0.51 1.33,0.57 0.19,0.06 0.67,0.22 1.43,0.48 0.76,0.25 1.2,0.44 1.33,0.57 1.01,0.38 1.56,1.14 1.62,2.28 0.06,1.15 -0.54,1.97 -1.81,2.48 -2.79,0.89 -10.63,1.39 -23.5,1.52 -12.88,0.13 -21.16,-0.19 -24.84,-0.95 -1.39,-0.38 -2.09,-1.3 -2.09,-2.76 0,-1.46 0.57,-2.32 1.71,-2.57 0.25,-0.13 0.95,-0.32 2.09,-0.57 1.14,-0.26 1.9,-0.45 2.28,-0.57 0.38,-0.13 0.98,-0.54 1.81,-1.24 0.83,-0.7 1.4,-1.52 1.71,-2.48 0.32,-0.95 0.64,-2.31 0.95,-4.09 0.32,-1.78 0.47,-3.87 0.47,-6.28l0 -35.02c0,-4.19 -0.16,-7.68 -0.47,-10.47 -0.32,-2.79 -0.64,-4.88 -0.95,-6.28 -0.32,-1.4 -0.89,-2.41 -1.71,-3.04 -0.83,-0.64 -1.52,-0.95 -2.09,-0.95 -0.57,0 -1.56,0.09 -2.95,0.28 -1.4,0.19 -2.48,0.28 -3.23,0.28 -1.52,-0.13 -2.51,-0.98 -2.95,-2.57 -0.44,-1.59 0.03,-2.76 1.43,-3.52 5.84,-3.81 11.96,-7.04 18.36,-9.71 6.41,-2.67 11.64,-4 15.7,-4 2.67,0 4.92,0.92 6.76,2.76 1.84,1.84 2.76,4.09 2.76,6.76l0 5.14c2.79,-4.19 6.69,-7.68 11.7,-10.47 5.01,-2.79 10.75,-4.19 17.22,-4.19 9.39,0 17.19,2.95 23.41,8.85 6.22,5.9 9.33,13.03 9.33,21.41l0.19 47.76c0,4.19 0.83,7.14 2.48,8.85 1.65,1.71 3.61,2.38 5.9,2zm118.37 0c1.01,-0.26 1.84,-0.03 2.48,0.66 0.63,0.7 0.83,1.52 0.57,2.48 -0.25,0.95 -0.95,1.68 -2.09,2.19 -1.52,0.64 -4.19,1.24 -7.99,1.81 -3.81,0.57 -8.47,0.51 -13.99,-0.19 -5.52,-0.7 -9.74,-2.57 -12.65,-5.61l-3.23 2.09c-8.5,3.68 -16.05,5.52 -22.64,5.52 -6.22,0 -12.15,-0.95 -17.8,-2.85 -5.65,-1.9 -10.85,-4.79 -15.6,-8.66 -4.76,-3.87 -8.56,-9.1 -11.42,-15.7 -2.85,-6.6 -4.28,-14.21 -4.28,-22.84 0,-6.34 0.83,-12.28 2.47,-17.79 1.65,-5.52 4.13,-10.56 7.42,-15.13 3.3,-4.57 7.74,-8.18 13.32,-10.85 5.58,-2.67 11.99,-4 19.22,-4 5.45,0 10.72,0.95 15.79,2.85 5.07,1.9 9.13,4.44 12.18,7.61l0 -7.23c0,-4.19 -0.13,-7.68 -0.38,-10.47 -0.25,-2.79 -0.57,-4.88 -0.95,-6.28 -0.38,-1.4 -0.98,-2.38 -1.81,-2.95 -0.82,-0.57 -1.52,-0.89 -2.09,-0.95 -0.57,-0.06 -1.52,0 -2.85,0.19 -1.33,0.19 -2.44,0.28 -3.33,0.28 -1.52,0 -2.48,-0.83 -2.85,-2.47 -0.38,-1.65 0.06,-2.85 1.33,-3.62 5.84,-3.81 11.96,-7.04 18.36,-9.71 6.41,-2.67 11.7,-4 15.89,-4 2.53,0 4.73,0.92 6.56,2.76 1.84,1.84 2.76,4.09 2.76,6.76l0.19 104.48c0,4.31 0.73,7.42 2.19,9.32 1.46,1.9 3.2,2.67 5.23,2.29zm-38.44 -11.99l0.19 -49.48c-2.29,-7.49 -6.53,-11.23 -12.75,-11.23 -4.82,0 -9.86,3.46 -15.13,10.37 -5.27,6.91 -8.22,16.52 -8.85,28.83 -0.26,3.43 -0.16,7.01 0.28,10.75 0.44,3.74 1.3,7.55 2.57,11.42 1.27,3.87 3.3,7.04 6.09,9.52 2.79,2.47 6.09,3.71 9.89,3.71 4.95,0 9.14,-1.78 12.56,-5.33 3.43,-3.55 5.14,-6.4 5.14,-8.56zm246.82 18.27l0 2.48 -13.32 0c-3.81,0 -6.82,-0.06 -9.04,-0.19 -2.22,-0.13 -4.88,-0.57 -7.99,-1.33 -3.11,-0.76 -5.55,-1.9 -7.33,-3.42 -2.66,-2.67 -4,-4 -4,-4 -2.16,1.9 -4.06,3.36 -5.71,4.37 -1.65,1.01 -4.06,2.22 -7.23,3.62 -3.17,1.39 -7.08,2.44 -11.7,3.14 -4.63,0.7 -10.06,1.05 -16.27,1.05 -10.66,0 -19.57,-2.06 -26.74,-6.18 -7.17,-4.13 -11.89,-9.74 -14.18,-16.84 -1.14,-3.68 -1.71,-7.26 -1.71,-10.75 0,-3.49 0.47,-6.66 1.43,-9.52 0.95,-2.85 2.19,-5.55 3.71,-8.09 1.52,-2.54 3.36,-4.85 5.52,-6.95 2.16,-2.09 4.25,-3.96 6.28,-5.61 2.03,-1.65 4.19,-3.14 6.47,-4.47 2.28,-1.33 4.22,-2.41 5.8,-3.23 1.59,-0.83 3.08,-1.56 4.47,-2.19 -0.38,-0.51 -1.4,-1.9 -3.05,-4.19 -1.65,-2.28 -2.79,-4 -3.42,-5.14 -0.64,-1.14 -1.46,-2.82 -2.48,-5.04 -1.01,-2.22 -1.74,-4.44 -2.19,-6.66 -0.44,-2.22 -0.67,-4.66 -0.67,-7.33 0,-9.26 3.17,-16.27 9.52,-21.03 6.35,-4.76 13.96,-7.14 22.84,-7.14 5.2,0 9.71,0.79 13.51,2.38 3.81,1.58 6.69,3.61 8.66,6.09 1.97,2.48 3.42,4.98 4.37,7.52 0.95,2.53 1.43,5.07 1.43,7.61 0,3.55 -0.83,6.88 -2.48,9.99 -1.65,3.11 -3.62,5.61 -5.9,7.52 -2.28,1.9 -4.6,3.58 -6.95,5.04 -2.35,1.46 -4.35,2.44 -5.99,2.95l-2.48 0.76 35.59 44.15c4.69,-7.11 7.99,-15.41 9.89,-24.93l5.9 1.14c-0.76,4.82 -2.06,9.61 -3.9,14.37 -1.84,4.76 -3.45,8.34 -4.85,10.75l-2.28 3.42c1.01,1.4 2.35,3.14 4,5.24 1.65,2.09 4.51,5.23 8.56,9.42 4.06,4.19 7.55,7.1 10.47,8.75l3.42 2.47zm-60.23 -114.37c-1.84,-3.55 -4.63,-5.33 -8.37,-5.33 -3.74,0 -6.63,1.65 -8.66,4.95 -2.03,3.3 -3.04,7.17 -3.04,11.61 0,6.72 3.43,14.91 10.28,24.55 0.38,-0.13 0.86,-0.35 1.43,-0.67 0.57,-0.32 1.59,-1.11 3.04,-2.38 1.46,-1.27 2.73,-2.73 3.81,-4.38 1.08,-1.65 2.07,-3.96 2.95,-6.95 0.89,-2.98 1.33,-6.18 1.33,-9.61 0,-4.31 -0.92,-8.24 -2.76,-11.8zm-37.01 91.34c3.3,5.71 7.74,9.96 13.32,12.75 5.58,2.79 11.01,4.19 16.27,4.19 5.27,0 9.96,-0.51 14.08,-1.52 4.12,-1.01 6.76,-2.16 7.9,-3.42l-43.01 -53.48c-0.64,0.51 -1.43,1.21 -2.38,2.1 -0.95,0.89 -2.44,2.82 -4.47,5.8 -2.03,2.98 -3.58,5.99 -4.66,9.04 -1.08,3.04 -1.49,6.82 -1.24,11.32 0.26,4.5 1.65,8.91 4.19,13.22zm272.33 4c0.25,-1.02 0.85,-1.62 1.8,-1.81 0.95,-0.19 1.78,0 2.48,0.57 0.7,0.57 0.98,1.3 0.86,2.19l-2.67 17.12c-0.38,1.78 -1.39,2.67 -3.04,2.67l-65.08 0c-12.31,0 -20.37,-0.38 -24.17,-1.14 -1.4,-0.25 -2.1,-1.11 -2.1,-2.57 0,-1.46 0.57,-2.38 1.71,-2.76 0.25,0 0.95,-0.13 2.09,-0.38 1.14,-0.25 1.9,-0.48 2.29,-0.67 0.38,-0.19 0.98,-0.6 1.81,-1.24 0.82,-0.64 1.39,-1.43 1.71,-2.38 0.32,-0.95 0.6,-2.31 0.86,-4.09 0.25,-1.78 0.38,-3.93 0.38,-6.47l0 -90.78c0,-1.4 -0.03,-2.63 -0.1,-3.71 -0.06,-1.08 -0.25,-2.06 -0.57,-2.95 -0.32,-0.89 -0.57,-1.65 -0.76,-2.29 -0.19,-0.63 -0.54,-1.2 -1.05,-1.71 -0.51,-0.51 -0.86,-0.92 -1.05,-1.24 -0.19,-0.32 -0.64,-0.63 -1.33,-0.95 -0.7,-0.32 -1.15,-0.51 -1.33,-0.57 -0.19,-0.06 -0.67,-0.23 -1.43,-0.48 -0.76,-0.25 -1.21,-0.38 -1.33,-0.38 -1.01,-0.38 -1.55,-1.17 -1.61,-2.38 -0.06,-1.2 0.54,-2 1.81,-2.38 2.79,-1.01 10.63,-1.59 23.5,-1.71 12.88,-0.13 21.16,0.19 24.84,0.95 1.39,0.38 2.09,1.3 2.09,2.76 0,1.46 -0.57,2.38 -1.71,2.76 -0.25,0 -0.95,0.13 -2.09,0.38 -1.14,0.25 -1.9,0.48 -2.29,0.67 -0.38,0.19 -0.98,0.6 -1.8,1.24 -0.83,0.64 -1.4,1.43 -1.71,2.38 -0.32,0.95 -0.6,2.31 -0.86,4.09 -0.25,1.78 -0.38,3.87 -0.38,6.28l0 106.76 21.89 0c3.04,0 5.9,-0.22 8.56,-0.67 2.67,-0.44 5.39,-1.2 8.18,-2.28 2.79,-1.08 5.24,-2.7 7.33,-4.85 2.09,-2.16 3.52,-4.82 4.28,-7.99zm45.96 -87.16c-2.98,3.04 -6.59,4.57 -10.85,4.57 -4.25,0 -7.9,-1.52 -10.94,-4.57 -3.04,-3.04 -4.57,-6.69 -4.57,-10.94 0,-4.25 1.52,-7.87 4.57,-10.85 3.04,-2.98 6.69,-4.47 10.94,-4.47 4.25,0 7.87,1.49 10.85,4.47 2.99,2.98 4.47,6.6 4.47,10.85 0,4.25 -1.49,7.9 -4.47,10.94zm15.32 101.24c1.01,0.25 1.56,0.98 1.62,2.19 0.06,1.21 -0.54,2.07 -1.81,2.57 -2.79,0.89 -10.63,1.39 -23.5,1.52 -12.88,0.13 -21.16,-0.19 -24.84,-0.95 -1.39,-0.38 -2.09,-1.3 -2.09,-2.76 0,-1.46 0.57,-2.32 1.71,-2.57 0.25,-0.13 0.95,-0.32 2.09,-0.57 1.14,-0.26 1.9,-0.45 2.28,-0.57 0.38,-0.13 0.98,-0.54 1.81,-1.24 0.83,-0.7 1.4,-1.52 1.71,-2.48 0.32,-0.95 0.64,-2.31 0.95,-4.09 0.32,-1.78 0.47,-3.87 0.47,-6.28l0 -35.02c0,-4.19 -0.16,-7.68 -0.47,-10.47 -0.32,-2.79 -0.64,-4.88 -0.95,-6.28 -0.32,-1.4 -0.89,-2.41 -1.71,-3.04 -0.83,-0.64 -1.52,-0.95 -2.09,-0.95 -0.57,0 -1.56,0.09 -2.95,0.28 -1.4,0.19 -2.48,0.28 -3.23,0.28 -1.52,-0.13 -2.51,-0.98 -2.95,-2.57 -0.44,-1.59 0.03,-2.76 1.43,-3.52 5.84,-3.81 11.96,-7.04 18.36,-9.71 6.41,-2.67 11.64,-4 15.7,-4 2.67,0 4.92,0.92 6.76,2.76 1.84,1.84 2.76,4.09 2.76,6.76l0 66.22c0,1.4 0.06,2.67 0.19,3.81 0.13,1.14 0.32,2.12 0.57,2.95 0.25,0.83 0.47,1.56 0.67,2.19 0.19,0.64 0.54,1.21 1.05,1.71 0.51,0.51 0.86,0.92 1.05,1.24 0.19,0.32 0.63,0.64 1.33,0.95 0.7,0.32 1.14,0.51 1.33,0.57 0.19,0.06 0.67,0.22 1.43,0.48 0.76,0.25 1.2,0.44 1.33,0.57zm107.71 -105.24c3.55,2.03 4.82,4.95 3.81,8.75 -0.63,2.29 -2.06,4.22 -4.28,5.8 -2.22,1.59 -5.04,2.38 -8.47,2.38 -1.27,0 -2.67,-0.13 -4.19,-0.38 -0.64,0 -1.9,-0.19 -3.81,-0.57 -2.16,-0.38 -3.68,-0.57 -4.57,-0.57 -3.42,0 -5.84,2.03 -7.23,6.09 11.16,7.61 16.93,18.84 17.32,33.68 0.13,9.64 -3.43,18.21 -10.66,25.69 -8.37,8.5 -19.16,12.75 -32.35,12.75 -9.26,0 -17.32,-1.71 -24.17,-5.14 -6.98,9.26 -8.63,14.72 -4.95,16.37 1.14,0.63 4.15,0.41 9.04,-0.67 4.88,-1.08 11.17,-2.6 18.84,-4.57 7.68,-1.97 12.72,-3.27 15.13,-3.9 9.39,-2.03 17.35,-1.52 23.88,1.52 6.53,3.04 10.31,9.01 11.32,17.89 0.51,3.93 -0.03,8.12 -1.62,12.56 -1.58,4.44 -4.12,8.72 -7.61,12.85 -3.49,4.12 -8.53,7.61 -15.13,10.46 -6.6,2.85 -14.21,4.54 -22.84,5.05 -7.74,0.38 -14.68,-0.35 -20.84,-2.19 -6.15,-1.84 -10.37,-4.53 -12.65,-8.09 -2.16,-3.17 -2.22,-6.18 -0.19,-9.04 2.03,-2.85 4.95,-3.59 8.75,-2.19 1.78,0.64 3.24,1.68 4.38,3.14 1.14,1.46 2.09,2.98 2.85,4.56 0.76,1.59 1.78,3.14 3.04,4.66 1.27,1.52 3.27,2.7 5.99,3.52 2.73,0.83 6.18,1.17 10.37,1.05 5.2,-0.13 10.24,-1.3 15.13,-3.52 4.88,-2.22 8.92,-4.85 12.09,-7.9 3.17,-3.04 5.49,-6.25 6.95,-9.61 1.46,-3.36 1.62,-6.25 0.48,-8.66 -2.03,-4.44 -8.31,-5.07 -18.84,-1.9 -2.79,0.89 -8.97,2.51 -18.55,4.85 -9.58,2.35 -16.46,4.1 -20.65,5.24 -7.36,1.9 -13.16,1.46 -17.41,-1.33 -4.25,-2.79 -6.38,-6.91 -6.38,-12.37 0,-3.94 1.75,-9.07 5.23,-15.41 3.49,-6.35 6.69,-11.36 9.61,-15.04 -5.58,-3.81 -9.61,-8.6 -12.08,-14.37 -2.48,-5.77 -3.71,-11.19 -3.71,-16.27 0,-4.69 1.11,-9.42 3.33,-14.17 2.22,-4.76 5.24,-9.07 9.04,-12.94 3.81,-3.87 8.53,-7.01 14.17,-9.42 5.65,-2.41 11.58,-3.61 17.8,-3.61 8.5,0 15.29,1.39 20.36,4.19 2.28,-6.72 5.99,-11.89 11.13,-15.51 5.14,-3.62 10.44,-5.43 15.89,-5.43 2.92,0 5.33,0.57 7.23,1.71zm-44.53 85.26c7.23,-2.41 8,-14.21 2.29,-35.39 -2.16,-7.87 -4.88,-14.08 -8.19,-18.65 -3.3,-4.56 -6.72,-6.85 -10.27,-6.85 -0.51,0 -1.02,0.06 -1.52,0.19 -2.41,0.38 -4.25,1.58 -5.52,3.61 -3.68,5.58 -3.49,16.43 0.57,32.54 1.9,7.87 4.6,14.02 8.09,18.46 3.49,4.44 7.27,6.66 11.32,6.66 1.14,0 2.22,-0.19 3.23,-0.57zm155.29 18.65c1.01,-0.26 1.84,-0.03 2.48,0.66 0.63,0.7 0.83,1.52 0.57,2.48 -0.25,0.95 -0.95,1.68 -2.09,2.19 -1.01,0.38 -2.82,0.83 -5.42,1.33 -2.6,0.51 -5.87,0.76 -9.8,0.76 -3.93,0 -7.67,-0.44 -11.23,-1.33 -3.55,-0.89 -6.57,-2.85 -9.04,-5.9 -2.48,-3.04 -3.71,-7.04 -3.71,-11.99l0 -41.11c0,-6.09 -1.15,-11.14 -3.43,-15.13 -2.28,-4 -5.58,-5.99 -9.89,-5.99 -3.43,0 -6.5,1.46 -9.23,4.38 -2.73,2.92 -4.53,6.28 -5.42,10.08l0 46.43c0,1.4 0.06,2.63 0.19,3.71 0.13,1.08 0.32,2.06 0.57,2.95 0.26,0.89 0.48,1.65 0.67,2.28 0.19,0.64 0.54,1.21 1.05,1.71 0.51,0.51 0.86,0.92 1.05,1.24 0.19,0.32 0.64,0.64 1.33,0.95 0.69,0.32 1.14,0.51 1.33,0.57 0.19,0.06 0.67,0.22 1.43,0.48 0.76,0.25 1.2,0.44 1.33,0.57 1.01,0.25 1.56,0.98 1.62,2.19 0.06,1.21 -0.54,2 -1.81,2.38 -2.79,1.01 -10.63,1.58 -23.51,1.71 -12.88,0.13 -21.15,-0.19 -24.83,-0.95 -1.4,-0.38 -2.09,-1.3 -2.09,-2.76 0,-1.46 0.57,-2.32 1.71,-2.57 0.26,-0.13 0.95,-0.32 2.1,-0.57 1.14,-0.26 1.9,-0.48 2.28,-0.67 0.38,-0.19 0.98,-0.6 1.81,-1.24 0.83,-0.64 1.39,-1.43 1.71,-2.38 0.32,-0.95 0.63,-2.31 0.95,-4.09 0.32,-1.78 0.48,-3.87 0.48,-6.28l0 -71.74c0,-4.19 -0.16,-7.68 -0.48,-10.47 -0.32,-2.79 -0.63,-4.88 -0.95,-6.28 -0.32,-1.4 -0.89,-2.38 -1.71,-2.95 -0.83,-0.57 -1.52,-0.89 -2.09,-0.95 -0.57,-0.06 -1.56,0 -2.95,0.19 -1.4,0.19 -2.48,0.28 -3.24,0.28 -1.52,-0.13 -2.5,-0.98 -2.95,-2.57 -0.44,-1.59 0.03,-2.76 1.43,-3.52 5.84,-3.81 11.96,-7.04 18.36,-9.71 6.4,-2.67 11.64,-4 15.7,-4 2.67,0 4.92,0.92 6.76,2.76 1.84,1.84 2.76,4.09 2.76,6.76l0 40.34c2.79,-4.06 6.5,-7.39 11.13,-9.99 4.63,-2.6 9.93,-3.9 15.89,-3.9 8.88,0 16.27,2.98 22.17,8.94 5.9,5.96 8.85,13.2 8.85,21.7l0.19 47.95c0,4.32 0.79,7.33 2.38,9.04 1.59,1.71 3.46,2.38 5.61,2zm72.51 -9.14c1.52,-1.27 2.82,-1.3 3.9,-0.09 1.08,1.2 0.98,2.51 -0.28,3.9 -0.13,0.13 -0.32,0.38 -0.57,0.76 -1.52,1.65 -2.85,3.01 -4,4.09 -1.14,1.08 -2.92,2.44 -5.33,4.09 -2.41,1.65 -5.26,2.92 -8.56,3.81 -3.3,0.89 -6.98,1.33 -11.04,1.33 -8.88,0 -15.29,-3.11 -19.22,-9.33 -3.93,-6.21 -5.9,-15.35 -5.9,-27.4l0 -53.28 -11.61 0c-1.78,0 -3.01,-0.64 -3.71,-1.9 -0.69,-1.27 -0.66,-2.54 0.09,-3.81 0.76,-1.27 1.97,-1.9 3.62,-1.9l4.95 0c5.07,0 9.71,-0.89 13.9,-2.67 4.19,-1.78 7.45,-4.06 9.8,-6.85 2.35,-2.79 4.15,-5.68 5.42,-8.66 1.27,-2.98 1.9,-5.87 1.9,-8.66 0,-1.39 0.57,-2.41 1.71,-3.04 1.14,-0.64 2.28,-0.7 3.43,-0.19 1.14,0.51 1.71,1.33 1.71,2.47l0 27.6 14.08 0c1.78,0 3.01,0.63 3.71,1.9 0.7,1.27 0.67,2.53 -0.09,3.81 -0.76,1.27 -1.97,1.9 -3.62,1.9l-13.89 -0.19 -0.19 60.71c0,8.12 2.22,13.01 6.66,14.65 4.44,1.65 8.82,0.64 13.13,-3.04z"/>
    <g>
     <path class="fil0" d="M253.7 1109.59c2.97,4.92 1.38,11.32 -3.54,14.29 -4.92,2.97 -11.32,1.38 -14.29,-3.54 -37.97,-62.88 -57.69,-127.08 -58.06,-192.69 -0.37,-65.51 18.59,-132.1 57.98,-199.83 2.88,-4.97 9.24,-6.67 14.21,-3.79 4.97,2.88 6.66,9.24 3.78,14.21 -37.5,64.49 -55.55,127.58 -55.21,189.33 0.35,61.66 19.07,122.31 55.13,182.02z"/>
     <path class="fil3" d="M318.5 1070.85c2.35,3.9 1.1,8.96 -2.8,11.31 -3.9,2.35 -8.96,1.1 -11.31,-2.8 -30.05,-49.75 -45.65,-100.56 -45.94,-152.47 -0.29,-51.84 14.71,-104.53 45.88,-158.13 2.27,-3.93 7.31,-5.27 11.24,-2.99 3.93,2.28 5.28,7.31 3,11.24 -29.68,51.03 -43.96,100.95 -43.69,149.82 0.28,48.79 15.09,96.78 43.62,144.03z"/>
     <path class="fil0" d="M383.3 1032.12c1.73,2.87 0.81,6.6 -2.06,8.33 -2.87,1.73 -6.6,0.81 -8.33,-2.06 -22.12,-36.63 -33.61,-74.04 -33.82,-112.26 -0.21,-38.17 10.83,-76.96 33.77,-116.42 1.68,-2.9 5.38,-3.88 8.28,-2.21 2.9,1.67 3.88,5.38 2.21,8.28 -21.85,37.57 -32.37,74.32 -32.16,110.3 0.2,35.92 11.11,71.26 32.12,106.04z"/>
    </g>
    <g>
     <path class="fil0" d="M2012.93 1109.59c-2.97,4.92 -1.38,11.32 3.54,14.29 4.92,2.97 11.32,1.38 14.29,-3.54 37.97,-62.88 57.69,-127.08 58.06,-192.69 0.37,-65.51 -18.59,-132.1 -57.98,-199.83 -2.88,-4.97 -9.24,-6.67 -14.21,-3.79 -4.97,2.88 -6.66,9.24 -3.78,14.21 37.5,64.49 55.55,127.58 55.21,189.33 -0.35,61.66 -19.07,122.31 -55.13,182.02z"/>
     <path class="fil3" d="M1948.13 1070.85c-2.35,3.9 -1.1,8.96 2.8,11.31 3.9,2.35 8.96,1.1 11.31,-2.8 30.05,-49.75 45.65,-100.56 45.94,-152.47 0.29,-51.84 -14.71,-104.53 -45.88,-158.13 -2.28,-3.93 -7.31,-5.27 -11.24,-2.99 -3.93,2.28 -5.27,7.31 -3,11.24 29.68,51.03 43.96,100.95 43.69,149.82 -0.28,48.79 -15.09,96.78 -43.62,144.03z"/>
     <path class="fil0" d="M1883.33 1032.12c-1.73,2.87 -0.81,6.6 2.06,8.33 2.87,1.73 6.6,0.81 8.33,-2.06 22.12,-36.63 33.61,-74.04 33.82,-112.26 0.21,-38.17 -10.83,-76.96 -33.77,-116.42 -1.68,-2.9 -5.38,-3.88 -8.28,-2.21 -2.9,1.67 -3.88,5.38 -2.21,8.28 21.85,37.57 32.37,74.32 32.16,110.3 -0.2,35.92 -11.11,71.26 -32.12,106.04z"/>
    </g>
   </g>
   <g>
    <path class="fil0" d="M7.84 61.03l-7.84 0 0 -9.68 0.31 -0.31c0.1,-0.1 0.21,-0.15 0.31,-0.15 0.41,-0.41 0.87,-0.72 1.38,-0.92 0.41,-0.21 0.92,-0.51 1.54,-0.92 0.2,-0.2 0.41,-0.31 0.61,-0.31l13.22 0 29.36 0 16.45 0 -0.15 0 0.15 0c-1.02,1.43 -2.23,2.64 -3.61,3.61 -1.38,0.97 -2.79,1.92 -4.23,2.85 -1.54,0.82 -3.1,1.59 -4.69,2.3 -1.59,0.72 -3.26,1.33 -5,1.84 -1.95,0.51 -3.87,0.92 -5.76,1.23 -1.89,0.31 -3.87,0.46 -5.92,0.46l-26.14 0zm178.17 107.3c-0.1,0 -0.08,-0.02 0.08,-0.08 0.15,-0.05 0.31,-0.13 0.46,-0.23 0.15,-0.1 0.28,-0.15 0.38,-0.15 0.1,0 0.05,0.1 -0.15,0.31 -0.51,0.41 -1.02,0.77 -1.54,1.08 -0.51,0.31 -1.02,0.61 -1.53,0.92 -1.54,1.03 -3.08,2 -4.61,2.92 -1.54,0.92 -3.13,1.79 -4.77,2.61 -0.2,0.21 -0.36,0.31 -0.46,0.31 -0.1,0.1 -0.2,0.16 -0.31,0.16 -0.1,0 -0.15,0.05 -0.15,0.15 -0.21,0.2 -0.38,0.33 -0.54,0.38 -0.16,0.05 -0.33,0.18 -0.54,0.38 -0.1,0 -0.2,0.05 -0.31,0.15 -0.82,0.51 -1.56,1.02 -2.23,1.54 -0.67,0.51 -1.41,1.02 -2.23,1.54 -4.41,2.97 -8.84,5.92 -13.3,8.84 -4.46,2.92 -9.09,5.66 -13.91,8.22 -2.97,1.75 -6.1,3.31 -9.38,4.69 -3.28,1.38 -6.66,2.28 -10.14,2.69 -6.56,0.62 -12.45,-0.82 -17.68,-4.3 -2.97,-2.05 -5.56,-4.46 -7.76,-7.22 -2.21,-2.77 -4.23,-5.64 -6.07,-8.61 -1.23,-2.15 -2.43,-4.3 -3.61,-6.45 -1.18,-2.16 -2.33,-4.31 -3.46,-6.46 -0.1,0.1 -0.2,0.15 -0.31,0.15l-0.15 0c-0.31,-0.72 -0.61,-1.64 -0.92,-2.76 -2.36,-4.51 -4.74,-8.97 -7.15,-13.38 -2.41,-4.41 -5.1,-8.76 -8.07,-13.07 -2.25,0.82 -4.48,1.56 -6.68,2.23 -2.21,0.67 -4.49,1.26 -6.84,1.77 -4.41,1.02 -8.94,1.67 -13.61,1.92 -4.66,0.26 -9.2,-0.23 -13.6,-1.46 -4,-1.13 -7.64,-2.87 -10.91,-5.23 -1.43,-1.13 -2.77,-2.39 -4,-3.77 -1.23,-1.38 -2.1,-2.95 -2.61,-4.69 -1.13,-3.28 -1.02,-6.66 0.31,-10.15 0.72,-1.74 1.72,-3.36 3,-4.84 1.28,-1.49 2.69,-2.8 4.23,-3.92l0.15 0 0 -0.16c1.75,-1.13 3.51,-2.23 5.3,-3.3 1.79,-1.08 3.67,-2.02 5.61,-2.85 1.64,-0.61 3.31,-1.08 5,-1.38 1.69,-0.31 3.41,-0.56 5.15,-0.77 4.61,-0.21 9.07,0.31 13.37,1.54 4.31,1.23 8.35,3.13 12.15,5.69 3.38,2.25 6.61,4.97 9.68,8.14 0.41,0.41 0.79,0.82 1.15,1.23 0.36,0.41 0.74,0.87 1.15,1.38 0.2,0.2 0.51,0.61 0.92,1.23 0.1,0.1 0.28,0.33 0.54,0.69 0.26,0.36 0.49,0.49 0.69,0.38l1.38 -0.46c0.31,-0.21 0.59,-0.46 0.84,-0.77 0.26,-0.31 0.54,-0.56 0.85,-0.77 1.43,-1.43 2.61,-3.13 3.54,-5.07 0.92,-1.95 1.33,-4 1.23,-6.15 -0.1,-1.75 -0.59,-3.33 -1.46,-4.77 -0.87,-1.43 -1.97,-2.71 -3.3,-3.84 -3.08,-2.36 -6.66,-4.1 -10.76,-5.23 -1.95,-0.51 -4.05,-0.87 -6.3,-1.08 -1.13,-0.2 -2.28,-0.28 -3.46,-0.23 -1.18,0.05 -2.33,0.03 -3.46,-0.08 -4.2,-0.2 -8.37,-0.82 -12.53,-1.84 -4.15,-1.02 -7.96,-2.71 -11.45,-5.07 -1.43,-0.92 -2.71,-2 -3.84,-3.22 -1.13,-1.23 -1.95,-2.71 -2.46,-4.46 -0.51,-1.64 -0.59,-3.25 -0.23,-4.84 0.36,-1.59 1.1,-3 2.23,-4.23 1.33,-1.64 2.87,-3.02 4.61,-4.15 1.13,-0.82 2.28,-1.59 3.46,-2.3 1.18,-0.72 2.38,-1.38 3.61,-2 3.49,-1.84 7.43,-3.28 11.84,-4.31 2.15,-0.51 4.3,-1.02 6.45,-1.54 2.15,-0.51 4.25,-1.28 6.3,-2.3 0.2,-0.1 0.46,-0.2 0.77,-0.31 0.31,-0.1 0.56,-0.21 0.77,-0.31 0,-0.1 0.1,-0.15 0.31,-0.15 0,-0.1 0.05,-0.18 0.15,-0.23 0.1,-0.05 0.15,-0.13 0.15,-0.23 0.2,-0.2 0.41,-0.36 0.61,-0.46 0.21,-0.1 0.41,-0.26 0.62,-0.46 1.53,-1.33 2.71,-2.71 3.54,-4.15 0,-0.31 0.15,-0.46 0.46,-0.46 0.41,-0.41 0.92,-0.72 1.54,-0.92 0.61,-0.41 1.13,-0.72 1.53,-0.92 0,-0.2 0.21,-0.31 0.62,-0.31l0.15 0 23.98 0 8.15 0c0,0 0.02,0.46 0.08,1.38 0.05,0.92 0.08,1.97 0.08,3.15 0,1.18 0,2.28 0,3.3 0,1.03 0,1.64 0,1.84l-0.62 0.31c-0.2,0.2 -0.46,0.38 -0.77,0.54 -0.31,0.15 -0.56,0.33 -0.77,0.54 -0.62,0.41 -1.13,0.67 -1.54,0.77 0,0.31 -0.21,0.46 -0.62,0.46l-3.22 0 -21.06 0c-1.33,1.23 -2.77,2.36 -4.3,3.38 -1.54,1.02 -3.13,2 -4.77,2.92 -1.02,0.51 -2.02,1 -3,1.46 -0.97,0.46 -2.02,0.85 -3.15,1.15 -1.13,0.31 -2.25,0.59 -3.38,0.84 -1.13,0.26 -2.25,0.49 -3.38,0.69 -1.95,0.41 -3.9,0.84 -5.84,1.3 -1.95,0.46 -3.85,1 -5.69,1.61 -0.51,0.1 -1.28,0.36 -2.3,0.77l-0.15 0.15c-0.41,0.41 -0.74,0.9 -1,1.46 -0.26,0.56 -0.33,1.1 -0.23,1.61 0.21,0.72 0.51,1.3 0.92,1.77 0.41,0.46 0.87,0.89 1.38,1.3 1.64,1.02 3.43,1.79 5.38,2.31 4,1.23 8.14,1.84 12.45,1.84 1.12,0.1 2.28,0.15 3.45,0.15 1.18,0 2.33,0.05 3.46,0.15 1.95,0.1 4.05,0.41 6.3,0.92 3.89,0.82 7.64,2.23 11.22,4.23 3.59,2 6.56,4.64 8.92,7.91 1.13,1.43 2.02,2.97 2.69,4.61 0.67,1.64 1.1,3.33 1.31,5.07 0.51,4.2 -0.1,8.2 -1.84,11.99 -1.74,3.89 -4.2,7.18 -7.38,9.84 -0.82,0.82 -1.72,1.54 -2.69,2.16 -0.97,0.61 -1.98,1.23 -3,1.84 -0.41,0.2 -0.77,0.41 -1.08,0.61 -0.31,0.2 -0.61,0.41 -0.92,0.61 2.35,3.08 4.41,6.3 6.15,9.69 1.75,3.38 3.33,6.86 4.77,10.45 0.51,1.03 1.05,2.02 1.61,3 0.56,0.97 1.1,2.02 1.61,3.15 1.74,3.28 3.48,6.56 5.23,9.84 1.74,3.28 3.64,6.4 5.69,9.38 2.05,2.97 4.35,5.66 6.92,8.07 2.56,2.41 5.48,4.28 8.76,5.61 2.97,1.13 5.92,1.69 8.84,1.69 2.92,0 5.87,-0.41 8.84,-1.23 2.25,-0.61 4.36,-1.38 6.3,-2.3 0.51,-0.21 1.02,-0.46 1.53,-0.77 0.31,0 0.56,-0.1 0.77,-0.31l0.15 0 0 -0.15c0.2,-0.1 0.44,-0.2 0.69,-0.31 0.26,-0.1 0.54,-0.2 0.85,-0.31 0.2,-0.21 0.38,-0.33 0.54,-0.38 0.15,-0.05 0.33,-0.18 0.54,-0.39 0.21,-0.2 0.62,-0.51 1.23,-0.92l0.15 0c0.41,-0.2 0.77,-0.46 1.08,-0.77 0.31,-0.31 0.66,-0.56 1.07,-0.77 0.72,-0.51 1.44,-1 2.16,-1.46 0.72,-0.46 1.43,-0.95 2.15,-1.46 2.05,-1.44 4.05,-2.8 5.99,-4.08 1.95,-1.28 3.95,-2.59 5.99,-3.92 2.46,-1.54 4.95,-3.05 7.46,-4.53 2.51,-1.49 5.1,-2.9 7.76,-4.23zm-163.72 -42.73c-0.2,1.84 0.26,3.41 1.38,4.69 1.13,1.28 2.46,2.33 4,3.15 3.08,1.64 6.3,2.53 9.69,2.69 3.38,0.16 6.76,0.13 10.14,-0.08 1.64,-0.1 3.26,-0.23 4.84,-0.38 1.59,-0.15 3.15,-0.38 4.69,-0.69 1.75,-0.31 3.38,-0.77 4.92,-1.38l0.31 0c-2.97,-2.76 -6.3,-5.38 -9.99,-7.84 -1.84,-1.23 -3.77,-2.36 -5.76,-3.38 -2,-1.02 -4.08,-1.79 -6.23,-2.3 -4.2,-0.92 -8.3,-0.87 -12.3,0.15 -0.51,0.1 -1.02,0.23 -1.53,0.38 -0.51,0.15 -1.03,0.33 -1.54,0.54l0 0.15 -0.15 0c-0.62,0.51 -1.15,1.15 -1.61,1.92 -0.46,0.77 -0.74,1.56 -0.85,2.39zm104.38 -64.56l-23.05 0 -3.84 0 0 -9.68 0.31 -0.31c0.1,-0.1 0.2,-0.15 0.31,-0.15 0.51,-0.51 1.02,-0.82 1.54,-0.92l1.38 -0.92c0.2,-0.2 0.41,-0.31 0.61,-0.31l11.83 0 27.98 0 28.29 0 12.91 0 0 9.68 -0.62 0.31c-0.41,0.41 -0.92,0.77 -1.54,1.07 -0.61,0.41 -1.07,0.67 -1.38,0.77 -0.31,0.31 -0.51,0.46 -0.62,0.46l-2.76 0 -21.37 0 -29.98 0zm59.8 14.91l0 0.15 0 0.92 0 3.38 0 5.23c0,0 -0.1,0.1 -0.31,0.31 -0.1,0.1 -0.2,0.15 -0.31,0.15l-1.38 0.92c-0.41,0.21 -0.92,0.51 -1.53,0.92 -0.1,0 -0.21,0.05 -0.31,0.15 -0.1,0.1 -0.2,0.15 -0.31,0.15 -4.61,0 -9.12,0.15 -13.53,0.46 -0.82,0.1 -1.64,0.18 -2.46,0.23 -0.82,0.05 -1.64,0.13 -2.46,0.23 1.02,1.03 1.84,2.18 2.46,3.46 0.62,1.28 1.13,2.64 1.54,4.08 1.13,3.89 1.43,7.89 0.92,11.99 -0.41,3.79 -1.41,7.36 -3,10.68 -1.59,3.33 -3.72,6.33 -6.38,8.99 -1.75,1.74 -3.59,3.26 -5.54,4.54 -1.94,1.28 -3.94,2.48 -5.99,3.61 -3.28,1.94 -6.97,3.22 -11.07,3.84 -1.95,0.31 -3.95,0.43 -5.99,0.38 -2.05,-0.05 -4.05,-0.33 -6,-0.84 -1.94,-0.51 -3.74,-1.29 -5.38,-2.31 -1.64,-1.02 -3.17,-2.25 -4.61,-3.69 -1.43,-1.43 -2.67,-2.97 -3.69,-4.61 -1.02,-1.64 -1.79,-3.44 -2.3,-5.38 -1.03,-3.49 -1.23,-7.18 -0.62,-11.07 0.51,-3.28 1.54,-6.38 3.08,-9.3 1.54,-2.92 3.54,-5.56 5.99,-7.91 1.64,-1.43 3.38,-2.79 5.23,-4.07 1.84,-1.28 3.69,-2.48 5.53,-3.61 1.64,-0.82 3.23,-1.64 4.77,-2.46 1.54,-0.82 3.17,-1.53 4.92,-2.15 3.28,-1.33 6.66,-2.43 10.14,-3.31 3.49,-0.87 7.02,-1.56 10.61,-2.07 4.41,-0.72 8.81,-1.23 13.22,-1.54 4.41,-0.31 8.82,-0.46 13.22,-0.46l1.53 0zm-40.89 49.65c1.43,-1.13 2.76,-2.46 4,-4 1.23,-1.53 2.21,-3.17 2.92,-4.92 0.82,-1.84 1.36,-3.79 1.61,-5.84 0.25,-2.05 0.23,-4.1 -0.08,-6.15 -0.21,-1.84 -0.85,-3.69 -1.92,-5.53 -1.08,-1.84 -2.49,-3.23 -4.23,-4.15 -1.74,-0.92 -3.59,-1.28 -5.53,-1.08 -1.95,0.21 -3.79,0.61 -5.53,1.23 -0.41,0.2 -0.79,0.38 -1.15,0.54 -0.36,0.15 -0.74,0.33 -1.15,0.54l-0.15 0c-0.21,0.21 -0.41,0.39 -0.62,0.54 -0.2,0.15 -0.41,0.33 -0.61,0.54 -0.92,0.82 -1.82,1.61 -2.69,2.38 -0.87,0.77 -1.67,1.67 -2.39,2.69 -1.23,1.43 -2.25,3.02 -3.08,4.76 -0.82,1.75 -1.33,3.59 -1.53,5.53 -0.1,2.05 0.15,4 0.77,5.84 0.61,1.84 1.64,3.48 3.08,4.92 2.35,2.36 5.12,3.69 8.3,4 1.03,0 2.05,-0.05 3.08,-0.15 1.02,-0.1 2,-0.26 2.92,-0.46 0.92,-0.1 1.94,-0.41 3.07,-0.92 0.41,-0.21 0.72,-0.31 0.92,-0.31zm-0.31 0.15c-0.1,0.1 -0.21,0.15 -0.31,0.15 -0.21,0.2 -0.36,0.33 -0.46,0.38 -0.1,0.05 0.15,-0.13 0.77,-0.54zm-10.61 -29.67c0.41,-0.2 0.56,-0.31 0.46,-0.31 -0.1,0 -0.26,0.1 -0.46,0.31zm211.98 71.94c-0.1,0 -0.08,-0.03 0.08,-0.08 0.15,-0.05 0.31,-0.13 0.46,-0.23 0.15,-0.1 0.28,-0.15 0.39,-0.15 0.1,0 0.05,0.05 -0.16,0.15 -0.51,0.41 -1.02,0.77 -1.53,1.08 -0.51,0.31 -1.03,0.66 -1.54,1.07 -1.54,1.02 -3.08,2 -4.61,2.92 -1.54,0.92 -3.13,1.79 -4.76,2.61 -0.21,0.21 -0.44,0.33 -0.69,0.38 -0.26,0.05 -0.49,0.18 -0.69,0.39 -0.31,0.2 -0.62,0.38 -0.92,0.54 -0.31,0.15 -0.56,0.33 -0.77,0.54 -0.82,0.51 -1.56,1 -2.23,1.46 -0.67,0.46 -1.36,0.95 -2.08,1.46 -4.51,2.97 -9.02,5.87 -13.53,8.69 -4.51,2.81 -9.12,5.51 -13.84,8.07 -3.17,1.74 -6.43,3.26 -9.76,4.54 -3.33,1.28 -6.79,2.17 -10.38,2.69 -7.17,0.92 -13.94,-0.15 -20.29,-3.23 -3.38,-1.74 -6.56,-3.87 -9.53,-6.38 -2.97,-2.51 -5.43,-5.41 -7.38,-8.69 -1.64,-2.67 -2.87,-5.48 -3.69,-8.46 -0.82,-2.97 -1.49,-5.94 -2,-8.92 -0.51,-3.28 -1.02,-6.56 -1.53,-9.84 -0.51,-3.28 -1.23,-6.56 -2.16,-9.84 -1.53,-4.82 -3.54,-9.48 -5.99,-13.99 -0.61,0.41 -1.07,0.66 -1.38,0.77 0,0.21 -0.2,0.31 -0.61,0.31 -2.36,0 -4.66,-0.02 -6.92,-0.08 -2.25,-0.05 -4.51,-0.33 -6.76,-0.84 -6.56,-1.64 -12.14,-4.66 -16.75,-9.07 -2.97,-2.77 -5.3,-5.89 -6.99,-9.38 -1.69,-3.49 -2.64,-7.22 -2.84,-11.23 -0.21,-3.89 0.46,-7.58 2,-11.07 0.82,-1.74 1.82,-3.38 3,-4.92 1.18,-1.54 2.48,-3.03 3.92,-4.46 3.48,-2.97 7.43,-5.58 11.83,-7.84 3.69,-1.95 7.38,-3.28 11.07,-4 2.25,-0.51 4.48,-0.82 6.69,-0.92 2.21,-0.1 4.43,-0.41 6.69,-0.92 1.94,-0.31 3.95,-0.77 5.99,-1.38 0.51,-0.21 0.97,-0.36 1.38,-0.46 0.41,-0.1 0.82,-0.26 1.23,-0.46 0.21,-0.1 0.44,-0.2 0.69,-0.31 0.26,-0.1 0.49,-0.2 0.69,-0.31 0.82,-0.61 1.38,-1.49 1.69,-2.62 0.1,-0.51 0.13,-0.97 0.08,-1.38 -0.05,-0.41 -0.08,-0.87 -0.08,-1.38l0 -1.84 -0.46 0 -6.61 0 -27.52 0 -25.82 0 -4.77 0 0 -9.68 0.31 -0.31c0.1,-0.1 0.21,-0.15 0.31,-0.15 0.51,-0.51 1.03,-0.82 1.54,-0.92l1.38 -0.92c0.21,-0.2 0.46,-0.31 0.77,-0.31l0.61 0 15.83 0 27.98 0 29.67 0 20.29 0 3.23 0 0 9.68 -0.62 0.31c-0.31,0.31 -0.77,0.66 -1.38,1.07 -0.51,0.31 -1.02,0.56 -1.53,0.77 -0.31,0.31 -0.51,0.46 -0.62,0.46l-16.91 0c0,0.72 -0.05,1.23 -0.15,1.54 -0.1,2.67 -1.13,5.02 -3.08,7.07 -1.33,1.43 -2.82,2.69 -4.46,3.77 -1.64,1.07 -3.33,2.12 -5.07,3.15 -3.08,1.74 -6.1,3.13 -9.07,4.15 -2.05,0.72 -4.15,1.28 -6.3,1.69 -2.15,0.41 -4.3,0.77 -6.45,1.07 -4.31,0.51 -8.46,1.59 -12.45,3.23 -0.82,0.31 -1.69,0.72 -2.62,1.23 -0.1,0.1 -0.18,0.15 -0.23,0.15 -0.05,0 -0.13,0.05 -0.23,0.15 -0.82,0.61 -1.64,1.28 -2.46,2 -0.82,0.72 -1.54,1.49 -2.15,2.3 -2.36,2.97 -3.38,6.25 -3.08,9.84 0.1,1.95 0.46,3.82 1.07,5.61 0.62,1.79 1.49,3.41 2.62,4.84 1.23,1.64 2.67,3.1 4.3,4.38 1.64,1.28 3.33,2.33 5.07,3.15 3.49,1.54 7.27,2.3 11.37,2.3l1.08 0 0 -8.76c0,-3.17 0.56,-6.05 1.69,-8.61 0.82,-1.84 1.84,-3.51 3.08,-4.99 1.23,-1.49 2.61,-2.85 4.15,-4.08 1.13,-0.82 2.28,-1.59 3.46,-2.3 1.18,-0.72 2.38,-1.43 3.61,-2.15 0.82,-0.51 1.66,-0.92 2.53,-1.23 0.87,-0.31 1.77,-0.61 2.69,-0.92 1.94,-0.51 3.95,-0.85 5.99,-1 2.05,-0.15 4.1,0.03 6.15,0.54 3.9,1.13 7.07,3.38 9.53,6.76 1.23,1.54 2.12,3.23 2.69,5.07 0.56,1.84 0.79,3.79 0.69,5.84 -0.21,3.9 -1.28,7.43 -3.23,10.61 -1.02,1.74 -2.23,3.31 -3.61,4.69 -1.38,1.38 -2.94,2.69 -4.69,3.92 -1.84,1.43 -3.79,2.74 -5.84,3.92 -2.05,1.18 -4.15,2.18 -6.3,3 -0.51,0.2 -1.05,0.38 -1.61,0.54 -0.56,0.15 -1.1,0.33 -1.61,0.54 1.54,3.9 2.76,8 3.69,12.3 0.61,3.18 1.13,6.35 1.54,9.53 0.41,3.18 0.97,6.35 1.69,9.53 0.82,3.07 1.87,6.04 3.15,8.92 1.28,2.87 2.95,5.48 5,7.84 2.56,2.97 5.51,5.56 8.84,7.76 3.33,2.21 6.84,3.87 10.53,5 3.28,0.92 6.61,1.33 9.99,1.23 3.38,-0.1 6.72,-0.62 9.99,-1.54 1.13,-0.31 2.18,-0.64 3.15,-1 0.97,-0.36 1.97,-0.74 2.99,-1.15 0.51,-0.21 1.02,-0.44 1.54,-0.69 0.51,-0.26 1.02,-0.49 1.54,-0.69 0.2,-0.1 0.33,-0.15 0.38,-0.15 0.05,0 0.18,-0.05 0.38,-0.15 0,-0.1 0.05,-0.15 0.15,-0.15 0.1,0 0.21,-0.05 0.31,-0.16 0.2,-0.1 0.38,-0.18 0.54,-0.23 0.15,-0.05 0.33,-0.13 0.54,-0.23 0.21,-0.2 0.41,-0.33 0.62,-0.38 0.2,-0.05 0.41,-0.18 0.61,-0.38 0.2,0 0.31,-0.05 0.31,-0.15l0.92 -0.46c0.31,-0.2 0.64,-0.43 1,-0.69 0.36,-0.26 0.69,-0.49 1,-0.69 0.82,-0.51 1.59,-1.03 2.3,-1.54 0.72,-0.51 1.48,-1.02 2.3,-1.54 1.84,-1.23 3.69,-2.46 5.53,-3.69 1.84,-1.23 3.79,-2.41 5.84,-3.54 2.46,-1.64 4.97,-3.2 7.54,-4.69 2.56,-1.48 5.17,-2.9 7.84,-4.23zm-106.38 -45.35c0.21,0 0.38,-0.03 0.54,-0.08 0.16,-0.05 0.28,-0.08 0.39,-0.08 2.15,0 4.25,-0.31 6.3,-0.92 1.13,-0.31 2.15,-0.66 3.08,-1.07 0.2,-0.1 0.61,-0.26 1.23,-0.46 1.43,-1.13 2.66,-2.41 3.69,-3.85 1.02,-1.43 1.74,-3.02 2.15,-4.76 0.2,-0.82 0.33,-1.69 0.38,-2.62 0.05,-0.92 -0.18,-1.79 -0.69,-2.61 -0.82,-1.84 -2.21,-3.08 -4.15,-3.69 -1.02,-0.41 -2.05,-0.61 -3.07,-0.61 -1.03,0 -2.05,0.1 -3.08,0.31 -0.51,0.1 -1.05,0.2 -1.61,0.31 -0.56,0.1 -1.1,0.26 -1.61,0.46 0,0 -0.2,0.1 -0.61,0.31 -1.13,0.92 -2.02,2.02 -2.69,3.31 -0.66,1.28 -1.05,2.69 -1.15,4.23l0 3.54 0 6 0 1.84 0 0.46 0.92 0zm11.69 -2.77c0.31,-0.2 0.51,-0.36 0.61,-0.46 0.1,-0.1 -0.1,0.05 -0.61,0.46zm-10.76 -51.95c-0.1,0 -0.18,0.02 -0.23,0.08 -0.05,0.05 -0.13,0.08 -0.23,0.08 0.62,-0.41 0.95,-0.59 1,-0.54 0.05,0.05 -0.13,0.18 -0.54,0.38zm71.17 121.13c-0.1,0.1 -0.15,0.15 -0.15,0.15l0.15 -0.15zm65.64 -29.05c0.21,1.74 0.21,3.43 0,5.07 -0.2,1.64 -0.61,3.23 -1.23,4.77 -0.82,2.36 -2,4.41 -3.54,6.15 -1.54,1.75 -3.28,3.28 -5.23,4.61 -4.61,3.08 -9.43,6.05 -14.45,8.92 -0.82,0.51 -1.64,0.95 -2.46,1.31 -0.82,0.36 -1.64,0.74 -2.46,1.15 -1.13,0.51 -2.28,0.95 -3.46,1.31 -1.18,0.36 -2.38,0.64 -3.61,0.85 -4.92,1.12 -9.91,1.43 -14.99,0.92 -5.07,-0.51 -9.91,-1.69 -14.53,-3.54 -4.41,-1.74 -8.14,-4.15 -11.25,-7.22 -2.69,-2.56 -4.92,-5.43 -6.74,-8.61 -1.82,-3.17 -3.28,-6.56 -4.43,-10.14 -1.02,-3.38 -1.79,-6.76 -2.25,-10.15 -0.46,-3.38 -0.77,-6.81 -0.92,-10.3 -0.15,-3.48 -0.18,-6.94 -0.08,-10.37 0.1,-3.44 0.15,-6.89 0.15,-10.38l0 -1.54 0 -28.59 0 -26.28 0 -6.15c0,-0.41 -0.15,-0.61 -0.46,-0.61l-5.38 0 -11.69 0c0,0 0,-0.46 0,-1.38 0,-0.92 0,-1.95 0,-3.07 0,-1.13 0,-2.21 0,-3.23 0,-1.02 0,-1.69 0,-2l0.62 -0.46c0.41,-0.31 1.02,-0.66 1.84,-1.07 0.82,-0.62 1.43,-1.02 1.84,-1.23 0.1,0 0.23,-0.05 0.38,-0.15 0.15,-0.1 0.33,-0.15 0.54,-0.15l10.61 0 28.59 0 6.45 0 0 9.68c0,-0.1 -0.15,0 -0.46,0.31 -0.1,0.1 -0.2,0.16 -0.31,0.16 -0.31,0.2 -0.61,0.41 -0.92,0.61 -0.31,0.2 -0.61,0.41 -0.92,0.61 -0.31,0.21 -0.61,0.38 -0.92,0.54 -0.31,0.15 -0.61,0.33 -0.92,0.54 -0.21,0.2 -0.46,0.31 -0.77,0.31l-12.29 0 0 2.3 0 25.21 0 22.75 0 3.69 0 3.84 0 12.76c0,1.02 0,2.02 0,3 0,0.97 0.05,1.97 0.15,2.99 0.2,3.69 0.61,7.36 1.23,10.99 0.62,3.64 1.59,7.25 2.92,10.84 1.23,3.18 2.79,6.17 4.69,8.99 1.89,2.82 4.12,5.36 6.68,7.61 3.38,2.97 7.43,5.17 12.15,6.61 4.51,1.54 9.2,2.46 14.07,2.77 4.87,0.31 9.61,-0.1 14.22,-1.23 1.54,-2.15 2.61,-4.48 3.22,-6.99 0.62,-2.51 0.82,-5.1 0.62,-7.76 0,-0.21 0.36,-0.51 1.07,-0.92 0.31,-0.2 0.67,-0.41 1.08,-0.61 0.92,-0.61 1.84,-1.23 2.77,-1.84 0.92,-0.61 1.84,-1.18 2.76,-1.69 0.92,-0.51 1.84,-1.05 2.77,-1.61 0.92,-0.56 1.84,-1.1 2.76,-1.61 -0.1,0 0.28,-0.23 1.15,-0.69 0.87,-0.46 1.3,-0.64 1.3,-0.54z"/>
    <path class="fil0" d="M315.29 46.12c-0.1,0.1 -0.15,0.15 -0.15,0.15 -0.2,0.2 -0.46,0.36 -0.77,0.46 -0.31,0.1 -0.56,0.26 -0.77,0.46 -0.31,0.21 -0.64,0.38 -1,0.54 -0.36,0.15 -0.69,0.33 -1,0.54l-2.3 0.92c-0.51,0.21 -1.05,0.44 -1.61,0.69 -0.56,0.26 -1.1,0.54 -1.61,0.84 -0.31,0.1 -0.64,0.23 -1,0.38 -0.36,0.16 -0.69,0.18 -1,0.08 -1.43,-0.2 -2.82,-0.72 -4.15,-1.53 -1.33,-0.82 -2.56,-1.75 -3.69,-2.77 -1.03,0.72 -2.1,1.38 -3.23,2 -1.13,0.62 -2.25,1.08 -3.38,1.38 -0.92,0.31 -1.89,0.54 -2.92,0.69 -1.02,0.15 -2.05,0.13 -3.07,-0.08 -2.05,-0.51 -3.97,-1.38 -5.77,-2.61 -1.79,-1.23 -3.41,-2.56 -4.84,-4 -1.13,-1.03 -2.21,-2.05 -3.23,-3.08 -1.02,-1.02 -2.1,-2.05 -3.23,-3.08 -1.74,-1.74 -3.51,-3.46 -5.3,-5.15 -1.79,-1.69 -3.56,-3.41 -5.3,-5.15 -1.13,-1.13 -2.28,-2.25 -3.46,-3.38 -1.18,-1.13 -2.38,-2.25 -3.61,-3.38 -1.74,-1.43 -3.48,-2.79 -5.22,-4.07 -1.75,-1.28 -3.64,-2.33 -5.69,-3.15 -0.92,-0.41 -1.84,-0.74 -2.76,-1 -0.92,-0.26 -1.89,-0.38 -2.92,-0.38 -0.31,-0.1 -0.41,-0.2 -0.31,-0.31 0.1,-0.31 0.31,-0.51 0.61,-0.61 1.13,-1.44 2.31,-2.92 3.54,-4.46 1.23,-1.54 2.41,-3.02 3.54,-4.46 0.21,-0.31 0.51,-0.56 0.92,-0.77 0.41,-0.2 0.77,-0.41 1.07,-0.61 0.31,-0.21 0.59,-0.36 0.85,-0.46 0.26,-0.1 0.49,-0.21 0.69,-0.31 0.31,-0.31 0.51,-0.46 0.62,-0.46 1.84,0.21 3.59,0.77 5.23,1.69 0.82,0.51 1.64,1.05 2.46,1.61 0.82,0.56 1.64,1.1 2.46,1.61 1.03,0.82 2.05,1.64 3.08,2.46 1.02,0.82 2,1.75 2.92,2.77 2.66,2.97 5.38,5.92 8.14,8.84 2.77,2.92 5.53,5.87 8.3,8.84 1.33,1.43 2.61,2.81 3.84,4.15 1.23,1.33 2.51,2.67 3.84,4 1.02,1.13 2.12,2.15 3.31,3.08 1.18,0.92 2.43,1.79 3.77,2.61 -0.31,-0.31 -0.59,-0.64 -0.85,-1 -0.25,-0.36 -0.54,-0.69 -0.84,-1 -0.51,-0.61 -0.87,-1.18 -1.08,-1.69 -0.51,-0.82 -0.97,-1.61 -1.38,-2.38 -0.41,-0.77 -0.87,-1.56 -1.38,-2.38 -1.13,-1.75 -2.21,-3.54 -3.23,-5.38 -1.02,-1.84 -2.05,-3.64 -3.08,-5.38 -0.82,-1.33 -1.64,-2.64 -2.46,-3.92 -0.82,-1.28 -1.74,-2.48 -2.77,-3.61 -1.43,-1.53 -3.07,-2.87 -4.92,-4 -1.84,-1.13 -3.79,-1.95 -5.84,-2.46l0.62 -0.46 1.38 -0.92c0.31,-0.2 0.64,-0.41 1,-0.61 0.36,-0.21 0.74,-0.36 1.15,-0.46 2.05,-0.72 4.05,-1.38 5.99,-2 1.95,-0.61 3.95,-1.23 5.99,-1.84 0.1,-0.1 0.21,-0.15 0.31,-0.15 1.53,0.1 2.92,0.72 4.15,1.84 1.23,1.13 2.25,2.25 3.08,3.38 0.82,1.02 1.59,2.1 2.3,3.23 0.72,1.13 1.33,2.25 1.84,3.38 0.72,1.23 1.36,2.48 1.92,3.77 0.56,1.28 1.2,2.53 1.92,3.77 0.92,1.84 1.84,3.72 2.77,5.61 0.92,1.89 1.84,3.77 2.76,5.61 1.54,3.18 3.59,5.92 6.15,8.23 2.57,2.3 5.53,3.97 8.92,5l-0.31 0.31zm186.62 121.9c-0.1,0 -0.08,-0.03 0.08,-0.08 0.15,-0.05 0.31,-0.13 0.46,-0.23 0.15,-0.1 0.28,-0.15 0.38,-0.15 0.1,0 0.05,0.05 -0.15,0.15 -0.51,0.41 -1.02,0.77 -1.53,1.08 -0.51,0.31 -1.03,0.66 -1.54,1.07 -1.54,1.02 -3.08,2 -4.61,2.92 -1.54,0.92 -3.13,1.79 -4.77,2.61 -0.2,0.1 -0.33,0.18 -0.38,0.23 -0.05,0.05 -0.18,0.13 -0.38,0.23 -0.51,0.21 -0.95,0.46 -1.31,0.77 -0.36,0.31 -0.74,0.61 -1.15,0.92l-1.38 0.92 -0.15 0c-0.21,0.2 -0.31,0.31 -0.31,0.31 -1.13,0.72 -2.18,1.41 -3.15,2.07 -0.97,0.67 -2.02,1.36 -3.15,2.07 -4.51,3.08 -9.02,6.02 -13.53,8.84 -4.51,2.82 -9.12,5.51 -13.84,8.07 -3.08,1.64 -6.2,3.13 -9.38,4.46 -3.18,1.33 -6.46,2.3 -9.84,2.92 -3.17,0.61 -6.33,0.84 -9.45,0.69 -3.13,-0.15 -6.17,-0.79 -9.15,-1.92 -3.08,-1.13 -5.97,-2.71 -8.69,-4.77 -2.71,-2.05 -5.05,-4.35 -6.99,-6.91 -1.74,-2.25 -3.1,-4.61 -4.07,-7.07 -0.97,-2.46 -1.74,-5 -2.3,-7.61 -0.56,-2.61 -1,-5.28 -1.31,-7.99 -0.31,-2.71 -0.61,-5.41 -0.92,-8.07 -0.41,-3.38 -0.9,-6.76 -1.46,-10.15 -0.56,-3.38 -1.31,-6.71 -2.23,-9.99 -1.75,-6.56 -4.31,-13.01 -7.69,-19.37 -4,5.43 -8.6,9.94 -13.83,13.53 -2.05,1.43 -4.2,2.77 -6.46,4 -2.25,1.23 -4.66,2.1 -7.22,2.62 -1.84,0.41 -3.74,0.59 -5.69,0.54 -1.95,-0.05 -3.84,-0.43 -5.69,-1.15 -3.69,-1.33 -6.81,-3.61 -9.38,-6.84 -2.56,-3.23 -4.25,-6.74 -5.07,-10.53 -0.51,-2.05 -0.77,-4.15 -0.77,-6.3 0,-2.15 0.1,-4.25 0.31,-6.3 0.51,-4.41 1.48,-8.35 2.92,-11.84 1.64,-3.89 3.64,-7.32 6,-10.3 2.66,-3.18 5.84,-5.89 9.53,-8.15 1.74,-1.13 3.54,-2.12 5.38,-2.99 1.84,-0.87 3.84,-1.46 5.99,-1.77 4.1,-0.62 7.89,-0.15 11.37,1.38 3.38,1.75 6.35,4.05 8.92,6.92 2.56,2.87 4.82,5.94 6.76,9.22 3.28,-7.17 4.61,-14.65 4,-22.44 -0.2,-2.05 -0.54,-4.1 -1,-6.15 -0.46,-2.05 -1.31,-3.94 -2.54,-5.69 -0.2,-0.2 -0.36,-0.38 -0.46,-0.54 -0.1,-0.15 -0.26,-0.23 -0.46,-0.23l-0.61 0 -7.54 0 -27.98 0 -25.52 0 -4.61 0 0 -9.68c0,0 0.05,-0.1 0.15,-0.31 0.1,-0.1 0.21,-0.15 0.31,-0.15 0.61,-0.51 1.12,-0.82 1.53,-0.92 0.21,-0.21 0.46,-0.36 0.77,-0.46 0.31,-0.1 0.56,-0.26 0.77,-0.46 0.21,-0.2 0.41,-0.31 0.62,-0.31l5.22 0 22.45 0 29.97 0 26.44 0 11.22 0 0 9.68 -0.46 0.31c-0.2,0.2 -0.46,0.38 -0.77,0.54 -0.31,0.15 -0.56,0.33 -0.77,0.54 -0.61,0.41 -1.13,0.67 -1.54,0.77 0,0.31 -0.2,0.46 -0.61,0.46l-12.15 0 0.46 0.92c1.54,4.51 2.18,9.1 1.93,13.76 -0.26,4.66 -1.05,9.25 -2.39,13.76 -1.33,4.2 -3.13,8.51 -5.38,12.91 -0.31,0.61 -0.61,1.2 -0.92,1.77 -0.31,0.56 -0.62,1.15 -0.92,1.77 -0.41,0.61 -0.72,1.13 -0.92,1.54 -0.1,0.1 -0.31,0.36 -0.62,0.77 -0.31,0.41 -0.41,0.67 -0.31,0.77 1.13,2.05 2.15,4.1 3.08,6.15l0.92 2.3c1.75,3.49 3.28,7.04 4.61,10.68 1.33,3.64 2.46,7.35 3.38,11.14 0.82,3.18 1.43,6.38 1.84,9.61 0.41,3.23 0.82,6.49 1.23,9.76 0.31,2.67 0.61,5.35 0.92,8.07 0.31,2.72 0.87,5.41 1.69,8.07 1.43,5.23 3.89,9.74 7.38,13.53 2.36,2.46 5,4.61 7.91,6.46 2.92,1.84 6.02,3.17 9.3,4 3.07,0.82 6.17,1.13 9.3,0.92 3.13,-0.21 6.22,-0.72 9.3,-1.54 1.74,-0.51 3.43,-1.08 5.07,-1.69 1.64,-0.62 3.28,-1.33 4.92,-2.15 0.41,-0.21 0.67,-0.36 0.77,-0.46l0.31 0c0.2,-0.2 0.56,-0.41 1.08,-0.61 0.2,-0.2 0.61,-0.41 1.23,-0.61l0.31 -0.31c0.21,0 0.41,-0.1 0.62,-0.31 0.41,-0.2 0.72,-0.41 0.92,-0.61 0.1,0 0.21,-0.05 0.31,-0.15 0.62,-0.41 0.97,-0.67 1.08,-0.77 0.41,-0.2 0.77,-0.43 1.08,-0.69 0.31,-0.26 0.66,-0.49 1.07,-0.69 0.31,-0.21 0.64,-0.44 1,-0.69 0.36,-0.25 0.69,-0.49 1,-0.69 0.1,0 0.21,-0.05 0.31,-0.15 0.61,-0.41 0.97,-0.67 1.07,-0.77 0.82,-0.51 1.66,-1.07 2.54,-1.69 0.87,-0.62 1.71,-1.18 2.53,-1.69 1.74,-1.23 3.51,-2.41 5.3,-3.54 1.79,-1.13 3.61,-2.25 5.46,-3.38 2.36,-1.43 4.74,-2.9 7.15,-4.38 2.41,-1.48 4.89,-2.84 7.45,-4.07zm-144.35 -39.35c0.51,-0.31 0.95,-0.64 1.31,-1 0.36,-0.36 0.74,-0.69 1.15,-1 0.82,-0.72 1.56,-1.43 2.23,-2.15 0.66,-0.72 1.3,-1.48 1.92,-2.3 1.33,-1.54 2.56,-3.23 3.69,-5.07 0.41,-0.51 0.74,-1 1,-1.46 0.26,-0.46 0.54,-0.95 0.85,-1.46 0.41,-0.61 0.67,-1.07 0.77,-1.38 0.21,-0.41 0.36,-0.67 0.46,-0.77 0.1,-0.1 0.05,-0.36 -0.16,-0.77 -0.82,-2.05 -1.69,-4 -2.61,-5.84 -0.92,-1.84 -2.05,-3.64 -3.38,-5.38 -1.13,-1.54 -2.44,-3.03 -3.92,-4.46 -1.49,-1.43 -3.2,-2.41 -5.15,-2.92 -1.43,-0.41 -3.08,-0.46 -4.92,-0.15 -0.51,0.1 -0.97,0.21 -1.38,0.31 -0.41,0.1 -0.87,0.25 -1.38,0.46 -2.87,2.56 -5.12,5.74 -6.76,9.53 -0.82,1.95 -1.43,3.95 -1.84,5.99 -0.41,2.05 -0.67,4.15 -0.77,6.3 -0.1,1.13 -0.13,2.2 -0.08,3.23 0.05,1.02 0.23,2.05 0.54,3.07 0.72,2.05 1.64,3.79 2.76,5.23 0.82,1.02 1.79,1.87 2.92,2.54 1.13,0.66 2.36,1.1 3.69,1.3 2.67,0.31 5.28,-0.1 7.84,-1.23 0.21,-0.1 0.39,-0.18 0.54,-0.23 0.15,-0.05 0.33,-0.13 0.54,-0.23 0,-0.1 0.05,-0.15 0.15,-0.15zm-9.07 -35.66c0.1,-0.1 0.21,-0.15 0.31,-0.15 0.31,-0.21 0.46,-0.33 0.46,-0.39 0,-0.05 -0.26,0.13 -0.77,0.54z"/>
   </g>
  </g>
 </g>
</svg>
