<?xml version="1.0" encoding="UTF-8"?>
<!DOCTYPE svg PUBLIC "-//W3C//DTD SVG 1.1//EN" "http://www.w3.org/Graphics/SVG/1.1/DTD/svg11.dtd">
<!-- Creator: CorelDRAW -->
<svg xmlns="http://www.w3.org/2000/svg" xml:space="preserve" width="50.2579mm" height="24.9532mm" version="1.1" style="shape-rendering:geometricPrecision; text-rendering:geometricPrecision; image-rendering:optimizeQuality; fill-rule:evenodd; clip-rule:evenodd"
viewBox="0 0 2017.57 1001.73"
 xmlns:xlink="http://www.w3.org/1999/xlink"
 xmlns:xodm="http://www.corel.com/coreldraw/odm/2003">
 <defs>
  <style type="text/css">
   <![CDATA[
    .fil1 {fill:#E31E24}
    .fil2 {fill:#FEFEFE;fill-rule:nonzero}
    .fil3 {fill:#E31E24;fill-rule:nonzero}
    .fil0 {fill:black;fill-rule:nonzero}
   ]]>
  </style>
 </defs>
 <g id="Layer_x0020_1">
  <metadata id="CorelCorpID_0Corel-Layer"/>
  <g id="_2394180169936">
   <path class="fil0" d="M79.45 604.52l-79.43 0 0 -383.82 79.43 0 0 383.82zm74.01 -383.82l83.52 0 153.7 267.43 0 -267.43 74.1 0 0 383.82 -79.61 0 -157.61 -273.21 0 273.21 -74.1 0 0 -383.82zm463.34 66.1l0 251.62 74.37 0c38.11,0 64.59,-18.75 79.61,-56.24 8.26,-20.61 12.35,-45.05 12.35,-73.48 0,-39.27 -6.13,-69.39 -18.48,-90.36 -12.26,-21.06 -36.78,-31.54 -73.48,-31.54l-74.37 0zm88.05 -66.1c23.81,0.35 43.71,3.11 59.53,8.35 27.01,8.8 48.87,25.05 65.57,48.69 13.42,19.1 22.57,39.71 27.45,61.93 4.89,22.21 7.29,43.44 7.29,63.61 0,51 -10.31,94.18 -30.83,129.63 -27.81,47.71 -70.9,71.61 -129.01,71.61l-165.88 0 0 -383.82 165.88 0zm389.51 326.78c31.98,0 57.31,-11.73 76.05,-35.18 18.74,-23.54 28.07,-56.95 28.07,-100.22 0,-43.18 -9.33,-76.5 -28.07,-100.04 -18.75,-23.54 -44.07,-35.36 -76.05,-35.36 -31.9,0 -57.31,11.73 -76.32,35.18 -19.01,23.54 -28.52,56.95 -28.52,100.22 0,43.27 9.51,76.68 28.52,100.22 19.01,23.46 44.42,35.18 76.32,35.18zm183.56 -135.4c0,68.95 -19.37,121.72 -58.02,158.32 -29.05,29.86 -70.9,44.78 -125.72,44.78 -54.91,0 -96.75,-14.93 -125.81,-44.78 -38.82,-36.6 -58.28,-89.38 -58.28,-158.32 0,-70.28 19.46,-123.05 58.28,-158.32 29.06,-29.85 70.9,-44.78 125.81,-44.78 54.82,0 96.67,14.93 125.72,44.78 38.65,35.27 58.02,88.05 58.02,158.32zm141.71 -125.27l0 103.42 86.36 0c17.15,0 29.94,-2.14 38.56,-6.31 15.19,-7.29 22.75,-21.68 22.75,-43.27 0,-23.37 -7.37,-39 -22.04,-47.09 -8.26,-4.53 -20.61,-6.75 -37.05,-6.75l-88.58 0zm105.28 -66.1c26.21,0.53 46.38,3.82 60.51,9.86 14.13,6.13 26.12,15.02 35.99,26.83 8.09,9.69 14.57,20.44 19.28,32.16 4.71,11.82 7.11,25.23 7.11,40.34 0,18.21 -4.62,36.07 -13.77,53.66 -9.24,17.59 -24.43,30.03 -45.58,37.31 17.68,7.11 30.2,17.24 37.58,30.39 7.37,13.06 11.11,33.14 11.11,60.06l0 25.85c0,17.59 0.71,29.5 2.13,35.72 2.13,9.95 7.11,17.24 14.93,21.95l0 9.68 -88.76 0c-2.48,-8.53 -4.26,-15.37 -5.33,-20.61 -2.13,-10.75 -3.28,-21.85 -3.46,-33.14l-0.53 -35.8c-0.36,-24.52 -4.53,-40.87 -12.71,-49.04 -8.09,-8.17 -23.28,-12.26 -45.58,-12.26l-78.18 0 0 150.86 -78.37 0 0 -383.82 183.65 0zm483.24 67.7l-203.01 0 0 82.1 186.4 0 0 66.64 -186.4 0 0 98.62 212.43 0 0 68.77 -290.8 0 0 -383.82 281.38 0 0 67.7z"/>
   <g>
    <path class="fil1" d="M456.91 707.53l1091.82 0c63.22,0 114.95,51.73 114.95,114.95l0 0c0,63.22 -51.73,114.95 -114.95,114.95l-1091.82 0c-63.22,0 -114.95,-51.73 -114.95,-114.95l0 -0c0,-63.22 51.73,-114.95 114.95,-114.95z"/>
    <path class="fil2" d="M475.19 805.25c3.61,2.37 6.35,4.18 8.21,5.42 1.86,1.24 4.35,2.99 7.45,5.25 3.1,2.26 5.48,4.29 7.11,6.1 1.64,1.81 3.36,3.9 5.17,6.27 1.81,2.37 3.11,4.86 3.9,7.45 0.79,2.6 1.18,5.31 1.18,8.13 0,10.62 -3.81,19.17 -11.43,25.66 -7.62,6.5 -17.65,9.74 -30.07,9.74 -7.12,0 -13.64,-0.94 -19.57,-2.8 -5.93,-1.86 -10.61,-4.18 -14.06,-6.94 -3.44,-2.77 -6.04,-5.62 -7.79,-8.55 -1.75,-2.93 -2.57,-5.62 -2.46,-8.04 0.11,-2.43 1.16,-4.4 3.13,-5.93 1.98,-1.53 4.26,-2.2 6.86,-2.03 2.6,0.17 4.8,1.32 6.61,3.47 1.13,1.35 2.26,3.33 3.39,5.93 1.13,2.6 2.2,4.97 3.22,7.11 1.02,2.14 2.28,4.29 3.81,6.44 1.53,2.15 3.67,3.84 6.44,5.08 2.77,1.24 6.07,1.86 9.91,1.86 3.84,0 7.48,-1.27 10.93,-3.81 3.44,-2.54 5.17,-5.96 5.17,-10.25 0,-2.37 -0.54,-4.71 -1.61,-7.03 -1.07,-2.32 -2.26,-4.29 -3.56,-5.93 -1.3,-1.64 -3.36,-3.58 -6.18,-5.85 -2.83,-2.26 -5.14,-4.01 -6.94,-5.25 -1.81,-1.24 -4.52,-2.99 -8.13,-5.25 -4.07,-2.71 -7.17,-4.8 -9.32,-6.27 -2.14,-1.47 -4.88,-3.58 -8.21,-6.35 -3.33,-2.77 -5.82,-5.28 -7.45,-7.54 -1.64,-2.26 -3.11,-4.97 -4.4,-8.13 -1.3,-3.16 -1.95,-6.44 -1.95,-9.82 0,-7.68 1.89,-14.34 5.67,-19.99 3.79,-5.64 8.53,-9.8 14.23,-12.45 5.7,-2.65 11.77,-3.98 18.21,-3.98 16.71,0 28.97,4.46 36.76,13.38 4.85,5.53 6.6,10.78 5.25,15.75 -0.9,3.61 -3.16,5.65 -6.78,6.1 -1.81,0.23 -3.39,0.08 -4.75,-0.42 -1.35,-0.51 -2.45,-1.16 -3.3,-1.95 -0.85,-0.79 -1.67,-2.06 -2.46,-3.81 -0.79,-1.75 -1.38,-3.19 -1.78,-4.32 -0.4,-1.13 -0.88,-2.82 -1.44,-5.08 -0.22,-0.79 -0.39,-1.35 -0.51,-1.69 -2.37,-8.81 -9.26,-13.21 -20.67,-13.21 -5.42,0 -9.65,1.58 -12.7,4.74 -2.37,2.37 -3.5,5.25 -3.39,8.64 0,2.37 0.59,4.72 1.78,7.03 1.18,2.31 2.51,4.35 3.98,6.1 1.47,1.75 3.67,3.78 6.61,6.1 2.93,2.31 5.36,4.09 7.29,5.34 1.92,1.24 4.8,3.11 8.64,5.59zm83.51 -16.09c12.42,0 22.56,4.21 30.41,12.62 7.85,8.41 11.77,19.29 11.77,32.61 0,13.78 -3.84,24.79 -11.52,33.03 -7.68,8.24 -17.9,12.36 -30.66,12.36 -5.08,0 -10.14,-1.1 -15.16,-3.3 -5.03,-2.2 -9.54,-5.25 -13.55,-9.14 -4.01,-3.9 -7.25,-8.72 -9.74,-14.48 -2.48,-5.76 -3.73,-11.91 -3.73,-18.47 0,-14.11 3.73,-25.18 11.18,-33.2 7.45,-8.02 17.78,-12.03 31,-12.03zm14.06 81.31c2.26,-0.79 3.81,-2.42 4.66,-4.91 0.85,-2.48 1.04,-5.76 0.59,-9.83 -0.45,-4.07 -1.16,-8.13 -2.12,-12.2 -0.96,-4.07 -2.29,-8.86 -3.98,-14.4 -2.82,-9.37 -6.35,-17.11 -10.59,-23.21 -4.24,-6.1 -8.27,-9.14 -12.11,-9.14 -0.45,0 -0.96,0.06 -1.53,0.17 -1.47,0.34 -2.71,1.41 -3.73,3.22 -1.81,4.06 -2.4,9.54 -1.78,16.43 0.62,6.89 2.06,13.78 4.32,20.67 3.05,9.03 6.74,16.88 11.1,23.54 4.35,6.66 8.67,10 12.96,10 0.79,0 1.52,-0.11 2.2,-0.34zm136.03 0.34c0.9,-0.23 1.63,-0.03 2.2,0.59 0.57,0.62 0.73,1.36 0.51,2.2 -0.23,0.85 -0.85,1.5 -1.86,1.95 -0.91,0.34 -2.48,0.73 -4.75,1.19 -2.26,0.45 -5.08,0.7 -8.47,0.76 -3.39,0.06 -6.6,-0.26 -9.65,-0.94 -3.05,-0.67 -5.82,-2.14 -8.3,-4.4 -2.48,-2.26 -3.89,-5.31 -4.24,-9.14 -2.37,4.06 -5.87,7.51 -10.5,10.33 -4.63,2.82 -10.05,4.24 -16.26,4.24 -8.24,0 -15.02,-2.71 -20.33,-8.13 -5.31,-5.42 -7.96,-11.91 -7.96,-19.48 -0.11,-12.99 -0.17,-22.24 -0.17,-27.78 0,-2.82 -0.11,-5.14 -0.34,-6.94 -0.23,-1.81 -0.54,-3.16 -0.93,-4.07 -0.4,-0.9 -0.93,-1.52 -1.61,-1.86 -0.68,-0.34 -1.3,-0.48 -1.86,-0.42 -0.57,0.06 -1.41,0.14 -2.54,0.25 -1.13,0.11 -2.04,0.17 -2.71,0.17 -1.36,0 -2.23,-0.73 -2.63,-2.2 -0.39,-1.47 0.03,-2.54 1.27,-3.22 5.19,-3.39 10.64,-6.27 16.35,-8.64 5.7,-2.37 10.36,-3.56 13.97,-3.56 2.37,0 4.38,0.82 6.01,2.46 1.64,1.63 2.46,3.64 2.46,6.01l0 21.17 0 23.72c0,5.53 1.07,10.05 3.22,13.55 2.14,3.5 5.25,5.25 9.32,5.25 3.16,0 6.15,-1.3 8.98,-3.9 2.82,-2.6 4.8,-5.53 5.93,-8.81l0 -23.89c0,-3.73 -0.11,-6.83 -0.34,-9.32 -0.23,-2.48 -0.51,-4.35 -0.85,-5.59 -0.34,-1.24 -0.88,-2.15 -1.61,-2.71 -0.73,-0.57 -1.36,-0.85 -1.86,-0.85 -0.51,0 -1.36,0.08 -2.54,0.25 -1.19,0.17 -2.12,0.25 -2.8,0.25 -1.47,-0.11 -2.37,-0.88 -2.71,-2.28 -0.34,-1.41 0.11,-2.46 1.36,-3.14 5.08,-3.39 10.47,-6.27 16.18,-8.64 5.7,-2.37 10.42,-3.56 14.14,-3.56 2.26,0 4.21,0.82 5.85,2.46 1.64,1.63 2.46,3.64 2.46,6.01l0 60.98c0,3.73 0.76,6.35 2.28,7.88 1.53,1.52 3.3,2.12 5.34,1.78zm109.43 0c1.02,-0.23 1.81,-0.03 2.37,0.59 0.56,0.62 0.73,1.36 0.51,2.2 -0.22,0.85 -0.9,1.5 -2.03,1.95 -0.9,0.45 -2.57,0.9 -5,1.36 -2.43,0.45 -5.5,0.68 -9.23,0.68 -3.73,0 -7.23,-0.4 -10.5,-1.19 -3.28,-0.79 -6.1,-2.54 -8.47,-5.25 -2.37,-2.71 -3.56,-6.27 -3.56,-10.67l0 -36.25c0,-5.42 -1.04,-9.91 -3.14,-13.47 -2.09,-3.56 -5.17,-5.34 -9.23,-5.34 -2.83,0 -5.56,1.07 -8.22,3.22 -2.65,2.15 -4.66,4.69 -6.01,7.62l0 42.86c0,1.24 0.06,2.37 0.17,3.39 0.11,1.02 0.29,1.89 0.51,2.63 0.22,0.73 0.42,1.38 0.59,1.95 0.17,0.57 0.48,1.08 0.93,1.53 0.45,0.45 0.76,0.82 0.93,1.1 0.17,0.29 0.56,0.57 1.18,0.85 0.62,0.29 1.02,0.45 1.18,0.51 0.17,0.06 0.59,0.2 1.27,0.43 0.68,0.22 1.07,0.39 1.18,0.51 0.9,0.34 1.38,1.02 1.44,2.03 0.06,1.02 -0.48,1.75 -1.61,2.2 -2.48,0.79 -9.46,1.24 -20.92,1.36 -11.47,0.11 -18.83,-0.17 -22.11,-0.85 -1.24,-0.34 -1.86,-1.16 -1.86,-2.46 0,-1.3 0.51,-2.06 1.53,-2.29 0.22,-0.11 0.85,-0.28 1.86,-0.51 1.02,-0.23 1.69,-0.4 2.03,-0.51 0.34,-0.11 0.88,-0.48 1.61,-1.1 0.73,-0.62 1.24,-1.36 1.53,-2.2 0.28,-0.85 0.57,-2.06 0.85,-3.64 0.28,-1.58 0.42,-3.44 0.42,-5.59l0 -31.17c0,-3.73 -0.14,-6.83 -0.42,-9.32 -0.28,-2.48 -0.57,-4.35 -0.85,-5.59 -0.28,-1.24 -0.79,-2.15 -1.53,-2.71 -0.73,-0.57 -1.35,-0.85 -1.86,-0.85 -0.51,0 -1.38,0.08 -2.63,0.25 -1.24,0.17 -2.2,0.25 -2.88,0.25 -1.36,-0.11 -2.23,-0.88 -2.63,-2.28 -0.39,-1.41 0.03,-2.46 1.27,-3.14 5.19,-3.39 10.64,-6.27 16.35,-8.64 5.7,-2.37 10.36,-3.56 13.97,-3.56 2.37,0 4.38,0.82 6.01,2.46 1.64,1.63 2.46,3.64 2.46,6.01l0 4.57c2.48,-3.73 5.96,-6.83 10.42,-9.32 4.46,-2.48 9.57,-3.73 15.33,-3.73 8.36,0 15.3,2.63 20.83,7.88 5.54,5.25 8.3,11.6 8.3,19.06l0.17 42.52c0,3.73 0.73,6.35 2.2,7.88 1.47,1.52 3.22,2.12 5.25,1.78zm105.36 0c0.9,-0.23 1.64,-0.03 2.2,0.59 0.56,0.62 0.73,1.36 0.51,2.2 -0.22,0.85 -0.85,1.5 -1.86,1.95 -1.35,0.57 -3.73,1.1 -7.11,1.61 -3.39,0.51 -7.54,0.45 -12.45,-0.17 -4.91,-0.62 -8.67,-2.29 -11.26,-5l-2.88 1.86c-7.57,3.28 -14.29,4.91 -20.16,4.91 -5.54,0 -10.81,-0.85 -15.84,-2.54 -5.03,-1.69 -9.65,-4.26 -13.89,-7.71 -4.24,-3.44 -7.62,-8.1 -10.16,-13.97 -2.54,-5.87 -3.81,-12.65 -3.81,-20.33 0,-5.64 0.73,-10.93 2.2,-15.84 1.47,-4.91 3.67,-9.4 6.61,-13.47 2.93,-4.07 6.89,-7.28 11.86,-9.65 4.97,-2.37 10.67,-3.56 17.11,-3.56 4.85,0 9.54,0.85 14.06,2.54 4.52,1.69 8.13,3.95 10.84,6.78l0 -6.44c0,-3.73 -0.12,-6.83 -0.34,-9.32 -0.22,-2.48 -0.51,-4.35 -0.85,-5.59 -0.34,-1.24 -0.88,-2.12 -1.61,-2.63 -0.73,-0.51 -1.35,-0.79 -1.86,-0.85 -0.51,-0.06 -1.35,0 -2.54,0.17 -1.18,0.17 -2.17,0.25 -2.96,0.25 -1.36,0 -2.2,-0.73 -2.54,-2.2 -0.34,-1.47 0.06,-2.54 1.18,-3.22 5.19,-3.39 10.65,-6.27 16.35,-8.64 5.7,-2.37 10.42,-3.56 14.15,-3.56 2.26,0 4.21,0.82 5.84,2.46 1.64,1.63 2.46,3.64 2.46,6.01l0.17 93c0,3.84 0.65,6.6 1.95,8.3 1.3,1.69 2.85,2.37 4.66,2.04zm-34.22 -10.67l0.17 -44.04c-2.04,-6.66 -5.82,-10 -11.35,-10 -4.29,0 -8.78,3.08 -13.46,9.23 -4.69,6.15 -7.31,14.71 -7.88,25.66 -0.23,3.05 -0.14,6.24 0.25,9.57 0.39,3.33 1.16,6.72 2.29,10.16 1.13,3.44 2.93,6.27 5.42,8.47 2.48,2.2 5.42,3.3 8.81,3.3 4.4,0 8.13,-1.58 11.18,-4.75 3.05,-3.16 4.57,-5.7 4.57,-7.62zm219.71 16.26l0 2.2 -11.85 0c-3.39,0 -6.07,-0.06 -8.05,-0.17 -1.98,-0.12 -4.35,-0.51 -7.11,-1.19 -2.77,-0.68 -4.94,-1.69 -6.52,-3.05 -2.37,-2.37 -3.56,-3.56 -3.56,-3.56 -1.92,1.69 -3.61,2.99 -5.08,3.89 -1.47,0.9 -3.61,1.98 -6.44,3.22 -2.82,1.24 -6.3,2.17 -10.42,2.79 -4.12,0.62 -8.95,0.93 -14.48,0.93 -9.49,0 -17.42,-1.83 -23.8,-5.5 -6.38,-3.67 -10.59,-8.67 -12.62,-14.99 -1.02,-3.28 -1.52,-6.46 -1.52,-9.57 0,-3.1 0.42,-5.93 1.27,-8.47 0.85,-2.54 1.95,-4.94 3.3,-7.2 1.36,-2.26 2.99,-4.32 4.91,-6.18 1.92,-1.86 3.78,-3.53 5.59,-5 1.81,-1.47 3.73,-2.79 5.76,-3.98 2.03,-1.18 3.75,-2.14 5.17,-2.88 1.41,-0.73 2.74,-1.38 3.98,-1.95 -0.34,-0.45 -1.24,-1.69 -2.71,-3.73 -1.47,-2.03 -2.48,-3.56 -3.05,-4.57 -0.57,-1.02 -1.3,-2.51 -2.2,-4.49 -0.9,-1.98 -1.55,-3.95 -1.95,-5.93 -0.39,-1.98 -0.59,-4.15 -0.59,-6.52 0,-8.24 2.83,-14.48 8.47,-18.72 5.65,-4.24 12.42,-6.35 20.33,-6.35 4.63,0 8.64,0.71 12.03,2.12 3.39,1.41 5.96,3.22 7.71,5.42 1.75,2.2 3.05,4.43 3.89,6.69 0.85,2.26 1.27,4.52 1.27,6.78 0,3.16 -0.73,6.13 -2.2,8.89 -1.47,2.77 -3.22,5 -5.25,6.69 -2.03,1.69 -4.09,3.19 -6.18,4.49 -2.09,1.3 -3.87,2.17 -5.34,2.63l-2.2 0.68 31.68 39.3c4.18,-6.33 7.11,-13.72 8.81,-22.19l5.25 1.02c-0.67,4.29 -1.83,8.55 -3.47,12.79 -1.64,4.24 -3.08,7.42 -4.32,9.57l-2.03 3.05c0.9,1.24 2.09,2.8 3.56,4.66 1.47,1.86 4.01,4.66 7.62,8.39 3.61,3.73 6.72,6.32 9.32,7.79l3.05 2.2zm-53.61 -101.81c-1.64,-3.16 -4.12,-4.75 -7.45,-4.75 -3.33,0 -5.9,1.47 -7.71,4.4 -1.81,2.94 -2.71,6.38 -2.71,10.33 0,5.99 3.05,13.27 9.15,21.85 0.34,-0.11 0.76,-0.31 1.27,-0.59 0.51,-0.28 1.41,-0.99 2.71,-2.12 1.3,-1.13 2.43,-2.43 3.39,-3.9 0.96,-1.47 1.84,-3.53 2.63,-6.18 0.79,-2.65 1.19,-5.5 1.19,-8.55 0,-3.84 -0.82,-7.34 -2.46,-10.5zm-32.95 81.31c2.93,5.08 6.89,8.87 11.85,11.35 4.97,2.48 9.8,3.73 14.48,3.73 4.69,0 8.87,-0.45 12.54,-1.36 3.67,-0.9 6.01,-1.92 7.03,-3.05l-38.28 -47.6c-0.57,0.45 -1.27,1.08 -2.12,1.87 -0.85,0.79 -2.17,2.51 -3.98,5.17 -1.81,2.65 -3.19,5.34 -4.15,8.04 -0.96,2.71 -1.33,6.07 -1.1,10.08 0.23,4.01 1.47,7.93 3.73,11.77zm242.41 3.56c0.22,-0.91 0.76,-1.44 1.61,-1.61 0.85,-0.17 1.58,0 2.2,0.51 0.62,0.51 0.88,1.16 0.76,1.95l-2.37 15.24c-0.34,1.58 -1.24,2.37 -2.71,2.37l-57.93 0c-10.96,0 -18.13,-0.34 -21.51,-1.02 -1.24,-0.22 -1.87,-0.99 -1.87,-2.29 0,-1.3 0.51,-2.12 1.53,-2.46 0.22,0 0.85,-0.11 1.86,-0.34 1.02,-0.22 1.69,-0.43 2.04,-0.59 0.34,-0.17 0.88,-0.53 1.61,-1.1 0.73,-0.57 1.24,-1.27 1.52,-2.12 0.29,-0.85 0.54,-2.06 0.76,-3.64 0.22,-1.58 0.34,-3.5 0.34,-5.76l0 -80.8c0,-1.24 -0.03,-2.34 -0.09,-3.3 -0.06,-0.96 -0.22,-1.83 -0.51,-2.63 -0.28,-0.79 -0.51,-1.47 -0.68,-2.04 -0.17,-0.56 -0.48,-1.07 -0.93,-1.52 -0.45,-0.45 -0.76,-0.82 -0.93,-1.1 -0.17,-0.28 -0.57,-0.56 -1.18,-0.85 -0.62,-0.28 -1.02,-0.45 -1.19,-0.51 -0.17,-0.06 -0.59,-0.2 -1.27,-0.43 -0.68,-0.22 -1.08,-0.34 -1.19,-0.34 -0.9,-0.34 -1.38,-1.04 -1.44,-2.12 -0.06,-1.07 0.48,-1.78 1.61,-2.12 2.48,-0.9 9.46,-1.41 20.92,-1.53 11.46,-0.11 18.83,0.17 22.11,0.85 1.24,0.34 1.86,1.16 1.86,2.46 0,1.3 -0.51,2.12 -1.53,2.46 -0.22,0 -0.85,0.11 -1.86,0.34 -1.02,0.22 -1.69,0.43 -2.04,0.59 -0.34,0.17 -0.88,0.54 -1.61,1.1 -0.73,0.57 -1.24,1.27 -1.53,2.12 -0.29,0.85 -0.54,2.06 -0.76,3.64 -0.22,1.58 -0.34,3.44 -0.34,5.59l0 95.03 19.48 0c2.71,0 5.25,-0.2 7.62,-0.59 2.37,-0.39 4.8,-1.07 7.28,-2.03 2.48,-0.96 4.66,-2.4 6.52,-4.32 1.86,-1.92 3.14,-4.29 3.81,-7.11zm40.91 -77.59c-2.65,2.71 -5.87,4.07 -9.65,4.07 -3.78,0 -7.03,-1.36 -9.74,-4.07 -2.71,-2.71 -4.07,-5.96 -4.07,-9.74 0,-3.78 1.36,-7 4.07,-9.65 2.71,-2.65 5.96,-3.98 9.74,-3.98 3.79,0 7,1.33 9.65,3.98 2.66,2.65 3.98,5.87 3.98,9.65 0,3.78 -1.32,7.03 -3.98,9.74zm13.64 90.12c0.9,0.22 1.38,0.88 1.44,1.95 0.06,1.08 -0.48,1.84 -1.61,2.29 -2.48,0.79 -9.46,1.24 -20.92,1.36 -11.47,0.11 -18.83,-0.17 -22.11,-0.85 -1.24,-0.34 -1.86,-1.16 -1.86,-2.46 0,-1.3 0.51,-2.06 1.53,-2.29 0.22,-0.11 0.85,-0.28 1.86,-0.51 1.02,-0.23 1.69,-0.4 2.03,-0.51 0.34,-0.11 0.88,-0.48 1.61,-1.1 0.73,-0.62 1.24,-1.36 1.53,-2.2 0.28,-0.85 0.57,-2.06 0.85,-3.64 0.28,-1.58 0.42,-3.44 0.42,-5.59l0 -31.17c0,-3.73 -0.14,-6.83 -0.42,-9.32 -0.28,-2.48 -0.57,-4.35 -0.85,-5.59 -0.28,-1.24 -0.79,-2.15 -1.53,-2.71 -0.73,-0.57 -1.35,-0.85 -1.86,-0.85 -0.51,0 -1.38,0.08 -2.63,0.25 -1.24,0.17 -2.2,0.25 -2.88,0.25 -1.36,-0.11 -2.23,-0.88 -2.63,-2.28 -0.39,-1.41 0.03,-2.46 1.27,-3.14 5.19,-3.39 10.64,-6.27 16.35,-8.64 5.7,-2.37 10.36,-3.56 13.97,-3.56 2.37,0 4.38,0.82 6.01,2.46 1.64,1.63 2.46,3.64 2.46,6.01l0 58.95c0,1.24 0.06,2.37 0.17,3.39 0.11,1.02 0.29,1.89 0.51,2.63 0.22,0.73 0.42,1.38 0.59,1.95 0.17,0.57 0.48,1.08 0.93,1.53 0.45,0.45 0.76,0.82 0.93,1.1 0.17,0.29 0.56,0.57 1.18,0.85 0.62,0.29 1.02,0.45 1.18,0.51 0.17,0.06 0.59,0.2 1.27,0.43 0.68,0.22 1.07,0.39 1.18,0.51zm95.88 -93.68c3.16,1.81 4.29,4.4 3.39,7.79 -0.56,2.04 -1.83,3.76 -3.81,5.17 -1.98,1.41 -4.49,2.12 -7.54,2.12 -1.13,0 -2.37,-0.11 -3.73,-0.34 -0.57,0 -1.69,-0.17 -3.39,-0.51 -1.92,-0.34 -3.28,-0.51 -4.07,-0.51 -3.05,0 -5.19,1.81 -6.44,5.42 9.94,6.78 15.07,16.77 15.42,29.98 0.11,8.58 -3.05,16.21 -9.49,22.87 -7.45,7.57 -17.05,11.35 -28.8,11.35 -8.25,0 -15.42,-1.53 -21.51,-4.57 -6.21,8.24 -7.68,13.1 -4.4,14.57 1.02,0.56 3.7,0.37 8.04,-0.59 4.35,-0.96 9.94,-2.32 16.77,-4.07 6.83,-1.75 11.32,-2.91 13.46,-3.47 8.36,-1.81 15.44,-1.35 21.26,1.36 5.82,2.71 9.18,8.02 10.08,15.92 0.45,3.5 -0.03,7.23 -1.44,11.18 -1.41,3.95 -3.67,7.76 -6.78,11.44 -3.1,3.67 -7.6,6.78 -13.46,9.31 -5.87,2.54 -12.65,4.04 -20.33,4.49 -6.89,0.34 -13.07,-0.31 -18.55,-1.95 -5.48,-1.63 -9.23,-4.03 -11.26,-7.2 -1.92,-2.82 -1.98,-5.5 -0.17,-8.04 1.81,-2.54 4.4,-3.19 7.79,-1.95 1.58,0.57 2.88,1.5 3.9,2.8 1.02,1.3 1.86,2.65 2.54,4.06 0.67,1.41 1.58,2.8 2.71,4.15 1.13,1.36 2.91,2.4 5.34,3.14 2.43,0.73 5.5,1.04 9.23,0.93 4.63,-0.11 9.12,-1.16 13.46,-3.14 4.35,-1.98 7.94,-4.32 10.76,-7.03 2.82,-2.71 4.89,-5.56 6.18,-8.55 1.3,-2.99 1.44,-5.56 0.43,-7.71 -1.81,-3.95 -7.4,-4.52 -16.77,-1.69 -2.48,0.79 -7.99,2.23 -16.52,4.32 -8.53,2.09 -14.65,3.65 -18.38,4.66 -6.55,1.69 -11.72,1.3 -15.5,-1.19 -3.79,-2.48 -5.68,-6.15 -5.68,-11.01 0,-3.5 1.55,-8.08 4.66,-13.72 3.11,-5.65 5.96,-10.11 8.55,-13.38 -4.97,-3.39 -8.55,-7.65 -10.75,-12.79 -2.2,-5.14 -3.3,-9.96 -3.3,-14.48 0,-4.18 0.99,-8.38 2.96,-12.62 1.98,-4.24 4.66,-8.08 8.05,-11.52 3.39,-3.44 7.6,-6.24 12.62,-8.39 5.03,-2.14 10.31,-3.22 15.84,-3.22 7.57,0 13.61,1.24 18.13,3.73 2.03,-5.99 5.34,-10.59 9.91,-13.81 4.58,-3.22 9.29,-4.83 14.15,-4.83 2.6,0 4.74,0.51 6.44,1.53zm-39.64 75.89c6.44,-2.14 7.12,-12.65 2.04,-31.51 -1.92,-7 -4.35,-12.54 -7.29,-16.6 -2.93,-4.06 -5.99,-6.1 -9.14,-6.1 -0.45,0 -0.91,0.06 -1.36,0.17 -2.15,0.34 -3.78,1.41 -4.91,3.22 -3.28,4.97 -3.1,14.62 0.51,28.97 1.69,7 4.09,12.48 7.2,16.43 3.11,3.95 6.47,5.93 10.08,5.93 1.02,0 1.98,-0.17 2.88,-0.51zm138.23 16.6c0.9,-0.23 1.64,-0.03 2.2,0.59 0.56,0.62 0.73,1.36 0.51,2.2 -0.22,0.85 -0.85,1.5 -1.86,1.95 -0.9,0.34 -2.51,0.73 -4.83,1.19 -2.32,0.45 -5.22,0.67 -8.73,0.67 -3.5,0 -6.83,-0.39 -9.99,-1.18 -3.16,-0.79 -5.85,-2.54 -8.04,-5.25 -2.2,-2.71 -3.3,-6.27 -3.3,-10.67l0 -36.59c0,-5.42 -1.02,-9.91 -3.05,-13.47 -2.03,-3.56 -4.97,-5.34 -8.81,-5.34 -3.05,0 -5.79,1.3 -8.22,3.9 -2.43,2.6 -4.03,5.59 -4.83,8.98l0 41.33c0,1.24 0.06,2.34 0.17,3.3 0.11,0.96 0.28,1.83 0.51,2.63 0.23,0.79 0.43,1.47 0.59,2.03 0.17,0.57 0.48,1.08 0.93,1.53 0.45,0.45 0.76,0.82 0.93,1.1 0.17,0.29 0.57,0.57 1.19,0.85 0.62,0.29 1.02,0.45 1.18,0.51 0.17,0.06 0.59,0.2 1.27,0.43 0.67,0.22 1.07,0.39 1.18,0.51 0.9,0.22 1.38,0.88 1.44,1.95 0.06,1.08 -0.48,1.78 -1.61,2.12 -2.48,0.9 -9.46,1.41 -20.92,1.53 -11.46,0.11 -18.83,-0.17 -22.1,-0.85 -1.24,-0.34 -1.86,-1.16 -1.86,-2.46 0,-1.3 0.51,-2.06 1.52,-2.29 0.23,-0.11 0.85,-0.28 1.87,-0.51 1.02,-0.23 1.69,-0.43 2.03,-0.59 0.34,-0.17 0.88,-0.54 1.61,-1.1 0.73,-0.57 1.24,-1.27 1.53,-2.12 0.28,-0.85 0.56,-2.06 0.84,-3.64 0.29,-1.58 0.43,-3.44 0.43,-5.59l0 -63.86c0,-3.73 -0.14,-6.83 -0.43,-9.32 -0.28,-2.48 -0.56,-4.35 -0.84,-5.59 -0.29,-1.24 -0.79,-2.12 -1.53,-2.63 -0.73,-0.51 -1.36,-0.79 -1.86,-0.85 -0.51,-0.06 -1.38,0 -2.63,0.17 -1.24,0.17 -2.2,0.25 -2.88,0.25 -1.35,-0.11 -2.23,-0.88 -2.63,-2.28 -0.39,-1.41 0.03,-2.46 1.27,-3.14 5.19,-3.39 10.64,-6.27 16.35,-8.64 5.7,-2.37 10.36,-3.56 13.97,-3.56 2.37,0 4.38,0.82 6.01,2.46 1.64,1.63 2.46,3.64 2.46,6.01l0 35.91c2.48,-3.61 5.78,-6.58 9.91,-8.89 4.12,-2.32 8.84,-3.47 14.15,-3.47 7.9,0 14.48,2.65 19.73,7.96 5.25,5.31 7.88,11.75 7.88,19.31l0.17 42.69c0,3.84 0.71,6.52 2.12,8.05 1.41,1.52 3.08,2.12 5,1.78zm64.54 -8.13c1.36,-1.13 2.51,-1.16 3.47,-0.08 0.96,1.07 0.88,2.23 -0.25,3.47 -0.11,0.11 -0.29,0.34 -0.51,0.68 -1.35,1.47 -2.54,2.68 -3.56,3.64 -1.02,0.96 -2.6,2.18 -4.75,3.64 -2.14,1.47 -4.68,2.6 -7.62,3.39 -2.94,0.79 -6.21,1.19 -9.83,1.19 -7.9,0 -13.61,-2.77 -17.11,-8.3 -3.5,-5.53 -5.25,-13.67 -5.25,-24.39l0 -47.43 -10.33 0c-1.58,0 -2.68,-0.57 -3.3,-1.69 -0.62,-1.13 -0.59,-2.26 0.08,-3.39 0.68,-1.13 1.75,-1.69 3.22,-1.69l4.4 0c4.52,0 8.64,-0.79 12.37,-2.37 3.73,-1.58 6.63,-3.61 8.72,-6.1 2.09,-2.48 3.7,-5.05 4.83,-7.71 1.13,-2.65 1.69,-5.22 1.69,-7.71 0,-1.24 0.51,-2.15 1.53,-2.71 1.02,-0.57 2.03,-0.62 3.05,-0.17 1.02,0.45 1.52,1.18 1.52,2.2l0 24.56 12.54 0c1.58,0 2.68,0.56 3.3,1.69 0.62,1.13 0.59,2.26 -0.08,3.39 -0.68,1.13 -1.75,1.69 -3.22,1.69l-12.36 -0.17 -0.17 54.04c0,7.23 1.98,11.58 5.93,13.04 3.95,1.47 7.85,0.57 11.69,-2.71z"/>
    <g>
     <path class="fil0" d="M225.82 987.68c2.64,4.38 1.23,10.08 -3.15,12.72 -4.38,2.64 -10.08,1.23 -12.72,-3.15 -33.8,-55.97 -51.35,-113.11 -51.68,-171.52 -0.33,-58.31 16.55,-117.59 51.61,-177.88 2.56,-4.42 8.22,-5.93 12.65,-3.37 4.42,2.56 5.93,8.23 3.37,12.65 -33.38,57.41 -49.45,113.56 -49.14,168.53 0.31,54.89 16.97,108.88 49.07,162.02z"/>
     <path class="fil3" d="M283.5 953.2c2.09,3.47 0.98,7.97 -2.49,10.06 -3.47,2.09 -7.97,0.98 -10.06,-2.49 -26.74,-44.29 -40.63,-89.51 -40.89,-135.72 -0.26,-46.14 13.1,-93.05 40.84,-140.75 2.02,-3.5 6.51,-4.69 10,-2.67 3.5,2.03 4.7,6.51 2.67,10.01 -26.41,45.42 -39.13,89.86 -38.89,133.36 0.24,43.43 13.43,86.15 38.83,128.2z"/>
     <path class="fil0" d="M341.18 918.72c1.54,2.55 0.72,5.87 -1.83,7.41 -2.55,1.54 -5.87,0.72 -7.41,-1.83 -19.69,-32.61 -29.92,-65.9 -30.11,-99.92 -0.19,-33.97 9.64,-68.51 30.06,-103.63 1.49,-2.58 4.79,-3.46 7.37,-1.96 2.58,1.49 3.46,4.79 1.96,7.37 -19.45,33.44 -28.81,66.16 -28.63,98.18 0.18,31.97 9.89,63.43 28.59,94.39z"/>
    </g>
    <g>
     <path class="fil0" d="M1791.76 987.68c-2.64,4.38 -1.23,10.08 3.15,12.72 4.38,2.64 10.08,1.23 12.72,-3.15 33.8,-55.97 51.35,-113.11 51.68,-171.52 0.33,-58.31 -16.55,-117.59 -51.61,-177.88 -2.56,-4.42 -8.22,-5.93 -12.65,-3.37 -4.42,2.56 -5.93,8.23 -3.37,12.65 33.38,57.41 49.45,113.56 49.14,168.53 -0.31,54.89 -16.97,108.88 -49.07,162.02z"/>
     <path class="fil3" d="M1734.08 953.2c-2.09,3.47 -0.98,7.97 2.49,10.06 3.47,2.09 7.98,0.98 10.06,-2.49 26.74,-44.29 40.63,-89.51 40.89,-135.72 0.26,-46.14 -13.1,-93.05 -40.83,-140.75 -2.03,-3.5 -6.51,-4.69 -10.01,-2.67 -3.5,2.03 -4.69,6.51 -2.67,10.01 26.41,45.42 39.13,89.86 38.89,133.36 -0.24,43.43 -13.43,86.15 -38.83,128.2z"/>
     <path class="fil0" d="M1676.4 918.72c-1.54,2.55 -0.72,5.87 1.83,7.41 2.55,1.54 5.87,0.72 7.41,-1.83 19.69,-32.61 29.92,-65.9 30.11,-99.92 0.19,-33.97 -9.64,-68.51 -30.06,-103.63 -1.49,-2.58 -4.79,-3.46 -7.37,-1.96 -2.58,1.49 -3.45,4.79 -1.96,7.37 19.45,33.44 28.81,66.16 28.63,98.18 -0.18,31.97 -9.89,63.43 -28.59,94.39z"/>
    </g>
   </g>
   <g>
    <path class="fil0" d="M6.98 54.32l-6.98 0 0 -8.62 0.27 -0.28c0.09,-0.09 0.18,-0.14 0.27,-0.14 0.37,-0.37 0.77,-0.64 1.23,-0.82 0.37,-0.18 0.82,-0.46 1.37,-0.82 0.18,-0.18 0.37,-0.27 0.55,-0.27l11.77 0 26.13 0 14.64 0 -0.14 0 0.14 0c-0.91,1.28 -1.98,2.35 -3.22,3.22 -1.23,0.87 -2.48,1.71 -3.76,2.53 -1.37,0.73 -2.76,1.41 -4.18,2.05 -1.41,0.64 -2.9,1.18 -4.45,1.64 -1.73,0.46 -3.44,0.82 -5.13,1.1 -1.69,0.27 -3.44,0.41 -5.27,0.41l-23.26 0zm158.59 95.51c-0.09,0 -0.07,-0.02 0.07,-0.07 0.14,-0.04 0.27,-0.11 0.41,-0.2 0.14,-0.09 0.25,-0.14 0.34,-0.14 0.09,0 0.05,0.09 -0.14,0.27 -0.45,0.37 -0.91,0.69 -1.37,0.96 -0.45,0.27 -0.91,0.55 -1.36,0.82 -1.37,0.92 -2.74,1.78 -4.11,2.6 -1.37,0.82 -2.78,1.6 -4.24,2.32 -0.18,0.18 -0.32,0.27 -0.41,0.27 -0.09,0.09 -0.18,0.14 -0.27,0.14 -0.09,0 -0.14,0.04 -0.14,0.14 -0.18,0.18 -0.34,0.3 -0.48,0.34 -0.14,0.04 -0.3,0.16 -0.48,0.34 -0.09,0 -0.18,0.04 -0.27,0.14 -0.73,0.46 -1.39,0.91 -1.98,1.37 -0.59,0.46 -1.26,0.91 -1.98,1.37 -3.93,2.65 -7.87,5.27 -11.84,7.87 -3.97,2.6 -8.09,5.04 -12.38,7.32 -2.65,1.55 -5.43,2.94 -8.35,4.18 -2.92,1.23 -5.93,2.03 -9.03,2.39 -5.84,0.55 -11.08,-0.73 -15.74,-3.83 -2.65,-1.82 -4.95,-3.97 -6.91,-6.43 -1.96,-2.46 -3.77,-5.02 -5.41,-7.66 -1.09,-1.91 -2.16,-3.83 -3.22,-5.74 -1.05,-1.92 -2.08,-3.83 -3.08,-5.75 -0.09,0.09 -0.18,0.14 -0.27,0.14l-0.14 0c-0.27,-0.64 -0.55,-1.46 -0.82,-2.46 -2.1,-4.01 -4.22,-7.98 -6.36,-11.91 -2.14,-3.92 -4.54,-7.8 -7.19,-11.63 -2.01,0.73 -3.99,1.39 -5.95,1.98 -1.96,0.59 -3.99,1.12 -6.09,1.57 -3.92,0.91 -7.96,1.49 -12.11,1.71 -4.15,0.23 -8.19,-0.2 -12.11,-1.3 -3.56,-1 -6.8,-2.56 -9.71,-4.65 -1.28,-1 -2.46,-2.12 -3.56,-3.35 -1.09,-1.23 -1.87,-2.63 -2.32,-4.18 -1,-2.92 -0.91,-5.93 0.27,-9.03 0.64,-1.55 1.53,-2.99 2.67,-4.31 1.14,-1.32 2.39,-2.49 3.76,-3.49l0.14 0 0 -0.14c1.55,-1 3.13,-1.98 4.72,-2.94 1.6,-0.96 3.26,-1.8 4.99,-2.53 1.46,-0.55 2.94,-0.96 4.45,-1.23 1.51,-0.27 3.03,-0.5 4.58,-0.68 4.1,-0.18 8.07,0.27 11.9,1.37 3.83,1.09 7.43,2.78 10.81,5.06 3.01,2.01 5.89,4.42 8.62,7.25 0.37,0.37 0.71,0.73 1.03,1.1 0.32,0.37 0.66,0.77 1.03,1.23 0.18,0.18 0.45,0.55 0.82,1.09 0.09,0.09 0.25,0.3 0.48,0.62 0.23,0.32 0.43,0.43 0.62,0.34l1.23 -0.41c0.27,-0.18 0.52,-0.41 0.75,-0.69 0.23,-0.27 0.48,-0.5 0.75,-0.68 1.28,-1.28 2.32,-2.78 3.15,-4.52 0.82,-1.73 1.18,-3.56 1.09,-5.47 -0.09,-1.55 -0.52,-2.97 -1.3,-4.24 -0.77,-1.28 -1.75,-2.42 -2.94,-3.42 -2.74,-2.1 -5.93,-3.65 -9.58,-4.65 -1.73,-0.46 -3.6,-0.77 -5.61,-0.96 -1,-0.18 -2.03,-0.25 -3.08,-0.2 -1.05,0.05 -2.08,0.02 -3.08,-0.07 -3.74,-0.18 -7.45,-0.73 -11.15,-1.64 -3.69,-0.91 -7.09,-2.42 -10.19,-4.52 -1.28,-0.82 -2.42,-1.78 -3.42,-2.87 -1,-1.1 -1.73,-2.42 -2.19,-3.97 -0.46,-1.46 -0.53,-2.89 -0.21,-4.31 0.32,-1.42 0.98,-2.67 1.99,-3.77 1.18,-1.46 2.55,-2.69 4.1,-3.69 1,-0.73 2.03,-1.41 3.08,-2.05 1.05,-0.64 2.12,-1.23 3.22,-1.78 3.1,-1.64 6.62,-2.92 10.54,-3.83 1.91,-0.45 3.83,-0.91 5.74,-1.37 1.91,-0.45 3.79,-1.14 5.61,-2.05 0.18,-0.09 0.41,-0.18 0.68,-0.27 0.27,-0.09 0.5,-0.18 0.69,-0.27 0,-0.09 0.09,-0.14 0.27,-0.14 0,-0.09 0.04,-0.16 0.14,-0.21 0.09,-0.04 0.14,-0.11 0.14,-0.2 0.18,-0.18 0.37,-0.32 0.55,-0.41 0.18,-0.09 0.37,-0.23 0.55,-0.41 1.36,-1.19 2.42,-2.42 3.15,-3.69 0,-0.28 0.14,-0.41 0.41,-0.41 0.37,-0.37 0.82,-0.64 1.37,-0.82 0.55,-0.37 1,-0.64 1.36,-0.82 0,-0.18 0.18,-0.27 0.55,-0.27l0.14 0 21.34 0 7.25 0c0,0 0.02,0.41 0.07,1.23 0.04,0.82 0.07,1.75 0.07,2.81 0,1.05 0,2.03 0,2.94 0,0.92 0,1.46 0,1.64l-0.55 0.28c-0.18,0.18 -0.41,0.34 -0.68,0.48 -0.27,0.14 -0.5,0.3 -0.68,0.48 -0.55,0.37 -1,0.59 -1.37,0.69 0,0.27 -0.18,0.41 -0.55,0.41l-2.87 0 -18.75 0c-1.18,1.1 -2.46,2.1 -3.83,3.01 -1.37,0.91 -2.78,1.78 -4.24,2.6 -0.91,0.46 -1.8,0.89 -2.67,1.3 -0.87,0.41 -1.8,0.75 -2.8,1.03 -1,0.27 -2.01,0.53 -3.01,0.75 -1,0.23 -2.01,0.43 -3.01,0.62 -1.73,0.37 -3.47,0.75 -5.2,1.16 -1.73,0.41 -3.42,0.89 -5.07,1.44 -0.45,0.09 -1.14,0.32 -2.05,0.69l-0.14 0.14c-0.37,0.37 -0.66,0.8 -0.89,1.3 -0.23,0.5 -0.3,0.98 -0.21,1.44 0.18,0.64 0.46,1.16 0.82,1.57 0.37,0.41 0.77,0.79 1.23,1.16 1.46,0.91 3.05,1.6 4.79,2.06 3.56,1.09 7.25,1.64 11.08,1.64 1,0.09 2.03,0.14 3.08,0.14 1.05,0 2.08,0.04 3.08,0.14 1.73,0.09 3.6,0.37 5.61,0.82 3.46,0.73 6.8,1.98 9.99,3.77 3.19,1.78 5.84,4.13 7.94,7.05 1,1.28 1.8,2.65 2.39,4.1 0.59,1.46 0.98,2.97 1.16,4.52 0.46,3.74 -0.09,7.3 -1.64,10.67 -1.55,3.46 -3.74,6.39 -6.57,8.76 -0.73,0.73 -1.53,1.37 -2.39,1.92 -0.87,0.55 -1.76,1.09 -2.67,1.64 -0.37,0.18 -0.68,0.36 -0.96,0.55 -0.27,0.18 -0.55,0.37 -0.82,0.55 2.1,2.74 3.92,5.61 5.47,8.62 1.55,3.01 2.97,6.11 4.24,9.3 0.45,0.92 0.94,1.8 1.44,2.67 0.5,0.87 0.98,1.8 1.44,2.81 1.55,2.92 3.1,5.84 4.65,8.76 1.55,2.92 3.24,5.7 5.06,8.35 1.82,2.65 3.87,5.04 6.16,7.19 2.28,2.14 4.88,3.81 7.8,4.99 2.65,1 5.27,1.51 7.87,1.51 2.6,0 5.22,-0.37 7.87,-1.1 2.01,-0.55 3.88,-1.23 5.61,-2.05 0.45,-0.18 0.91,-0.41 1.36,-0.68 0.28,0 0.5,-0.09 0.69,-0.28l0.14 0 0 -0.14c0.18,-0.09 0.39,-0.18 0.61,-0.27 0.23,-0.09 0.48,-0.18 0.75,-0.27 0.18,-0.18 0.34,-0.3 0.48,-0.34 0.14,-0.05 0.3,-0.16 0.48,-0.35 0.18,-0.18 0.55,-0.45 1.1,-0.82l0.14 0c0.37,-0.18 0.69,-0.41 0.96,-0.68 0.27,-0.28 0.59,-0.5 0.96,-0.69 0.64,-0.45 1.28,-0.89 1.92,-1.3 0.64,-0.41 1.28,-0.84 1.91,-1.3 1.82,-1.28 3.6,-2.49 5.34,-3.63 1.73,-1.14 3.51,-2.3 5.34,-3.49 2.19,-1.37 4.4,-2.71 6.64,-4.03 2.23,-1.32 4.54,-2.58 6.91,-3.77zm-145.73 -38.04c-0.18,1.64 0.23,3.03 1.23,4.17 1,1.14 2.19,2.08 3.56,2.81 2.74,1.46 5.61,2.26 8.62,2.39 3.01,0.14 6.02,0.12 9.03,-0.07 1.46,-0.09 2.9,-0.2 4.31,-0.34 1.41,-0.14 2.81,-0.34 4.17,-0.61 1.55,-0.27 3.01,-0.69 4.38,-1.23l0.27 0c-2.65,-2.46 -5.61,-4.79 -8.89,-6.98 -1.64,-1.1 -3.35,-2.1 -5.13,-3.01 -1.78,-0.91 -3.63,-1.6 -5.54,-2.05 -3.74,-0.82 -7.39,-0.78 -10.95,0.14 -0.45,0.09 -0.91,0.2 -1.36,0.34 -0.46,0.14 -0.92,0.3 -1.37,0.48l0 0.14 -0.14 0c-0.55,0.46 -1.03,1.03 -1.44,1.71 -0.41,0.69 -0.66,1.39 -0.75,2.12zm92.91 -57.47l-20.52 0 -3.42 0 0 -8.62 0.27 -0.28c0.09,-0.09 0.18,-0.14 0.27,-0.14 0.46,-0.45 0.91,-0.73 1.37,-0.82l1.23 -0.82c0.18,-0.18 0.36,-0.27 0.55,-0.27l10.53 0 24.91 0 25.18 0 11.49 0 0 8.62 -0.55 0.28c-0.37,0.37 -0.82,0.68 -1.37,0.96 -0.55,0.37 -0.96,0.59 -1.23,0.69 -0.27,0.27 -0.46,0.41 -0.55,0.41l-2.46 0 -19.02 0 -26.68 0zm53.23 13.27l0 0.14 0 0.82 0 3.01 0 4.65c0,0 -0.09,0.09 -0.27,0.27 -0.09,0.09 -0.18,0.14 -0.27,0.14l-1.23 0.82c-0.36,0.18 -0.82,0.46 -1.36,0.82 -0.09,0 -0.18,0.04 -0.28,0.14 -0.09,0.09 -0.18,0.14 -0.27,0.14 -4.1,0 -8.12,0.14 -12.04,0.41 -0.73,0.09 -1.46,0.16 -2.19,0.2 -0.73,0.05 -1.46,0.12 -2.19,0.2 0.91,0.92 1.64,1.94 2.19,3.08 0.55,1.14 1,2.35 1.37,3.63 1,3.46 1.28,7.02 0.82,10.67 -0.37,3.38 -1.26,6.55 -2.67,9.51 -1.41,2.97 -3.31,5.63 -5.68,8 -1.55,1.55 -3.2,2.9 -4.93,4.04 -1.73,1.14 -3.51,2.21 -5.34,3.22 -2.92,1.73 -6.2,2.87 -9.85,3.42 -1.73,0.27 -3.51,0.39 -5.34,0.34 -1.83,-0.04 -3.6,-0.3 -5.34,-0.75 -1.73,-0.46 -3.33,-1.14 -4.79,-2.06 -1.46,-0.91 -2.83,-2.01 -4.1,-3.28 -1.28,-1.28 -2.37,-2.65 -3.28,-4.1 -0.91,-1.46 -1.6,-3.06 -2.05,-4.79 -0.92,-3.1 -1.1,-6.39 -0.55,-9.85 0.46,-2.92 1.37,-5.68 2.74,-8.28 1.37,-2.6 3.15,-4.95 5.34,-7.05 1.46,-1.28 3.01,-2.48 4.65,-3.63 1.64,-1.14 3.28,-2.21 4.93,-3.22 1.46,-0.73 2.87,-1.46 4.24,-2.19 1.37,-0.73 2.83,-1.36 4.38,-1.91 2.92,-1.18 5.93,-2.16 9.03,-2.94 3.1,-0.77 6.25,-1.39 9.44,-1.85 3.92,-0.64 7.84,-1.09 11.77,-1.37 3.92,-0.27 7.85,-0.41 11.77,-0.41l1.36 0zm-36.39 44.2c1.28,-1 2.46,-2.19 3.56,-3.56 1.1,-1.36 1.96,-2.83 2.6,-4.38 0.73,-1.64 1.21,-3.38 1.44,-5.2 0.22,-1.82 0.2,-3.65 -0.07,-5.47 -0.18,-1.64 -0.75,-3.28 -1.71,-4.93 -0.96,-1.64 -2.22,-2.87 -3.77,-3.69 -1.55,-0.82 -3.19,-1.14 -4.93,-0.96 -1.73,0.18 -3.38,0.55 -4.93,1.1 -0.37,0.18 -0.71,0.34 -1.03,0.48 -0.32,0.14 -0.66,0.3 -1.02,0.48l-0.14 0c-0.18,0.18 -0.37,0.35 -0.55,0.48 -0.18,0.14 -0.37,0.3 -0.55,0.48 -0.82,0.73 -1.62,1.44 -2.39,2.12 -0.78,0.69 -1.49,1.49 -2.12,2.4 -1.09,1.28 -2.01,2.69 -2.74,4.24 -0.73,1.55 -1.18,3.2 -1.36,4.93 -0.09,1.83 0.14,3.56 0.68,5.2 0.55,1.64 1.46,3.1 2.74,4.38 2.1,2.1 4.56,3.28 7.39,3.56 0.92,0 1.83,-0.05 2.74,-0.14 0.91,-0.09 1.78,-0.23 2.6,-0.41 0.82,-0.09 1.73,-0.37 2.73,-0.82 0.37,-0.18 0.64,-0.27 0.82,-0.27zm-0.27 0.14c-0.09,0.09 -0.18,0.14 -0.27,0.14 -0.18,0.18 -0.32,0.3 -0.41,0.34 -0.09,0.04 0.14,-0.11 0.69,-0.48zm-9.44 -26.41c0.37,-0.18 0.5,-0.27 0.41,-0.27 -0.09,0 -0.23,0.09 -0.41,0.27zm188.69 64.04c-0.09,0 -0.07,-0.02 0.07,-0.07 0.14,-0.04 0.27,-0.11 0.41,-0.2 0.14,-0.09 0.25,-0.14 0.35,-0.14 0.09,0 0.04,0.04 -0.14,0.14 -0.45,0.37 -0.91,0.68 -1.36,0.96 -0.46,0.27 -0.92,0.59 -1.37,0.96 -1.37,0.91 -2.74,1.78 -4.11,2.6 -1.37,0.82 -2.78,1.59 -4.24,2.32 -0.18,0.18 -0.39,0.3 -0.62,0.34 -0.23,0.05 -0.43,0.16 -0.61,0.35 -0.27,0.18 -0.55,0.34 -0.82,0.48 -0.27,0.14 -0.5,0.3 -0.68,0.48 -0.73,0.46 -1.39,0.89 -1.98,1.3 -0.59,0.41 -1.21,0.84 -1.85,1.3 -4.01,2.65 -8.02,5.22 -12.04,7.73 -4.01,2.51 -8.12,4.9 -12.32,7.18 -2.83,1.55 -5.72,2.9 -8.69,4.04 -2.97,1.14 -6.04,1.93 -9.24,2.39 -6.38,0.82 -12.4,-0.14 -18.06,-2.87 -3.01,-1.55 -5.84,-3.44 -8.48,-5.68 -2.65,-2.24 -4.84,-4.81 -6.57,-7.73 -1.46,-2.37 -2.56,-4.88 -3.28,-7.53 -0.73,-2.65 -1.32,-5.29 -1.78,-7.94 -0.45,-2.92 -0.91,-5.84 -1.36,-8.76 -0.46,-2.92 -1.1,-5.84 -1.92,-8.76 -1.36,-4.29 -3.15,-8.43 -5.34,-12.45 -0.55,0.37 -0.96,0.59 -1.23,0.68 0,0.18 -0.18,0.27 -0.55,0.27 -2.1,0 -4.15,-0.02 -6.16,-0.07 -2.01,-0.04 -4.01,-0.3 -6.02,-0.75 -5.84,-1.46 -10.81,-4.15 -14.91,-8.07 -2.65,-2.46 -4.72,-5.25 -6.23,-8.35 -1.51,-3.1 -2.35,-6.43 -2.53,-9.99 -0.18,-3.46 0.41,-6.75 1.78,-9.85 0.73,-1.55 1.62,-3.01 2.67,-4.38 1.05,-1.37 2.21,-2.69 3.49,-3.97 3.1,-2.65 6.61,-4.97 10.53,-6.98 3.28,-1.73 6.57,-2.92 9.85,-3.56 2.01,-0.46 3.99,-0.73 5.95,-0.82 1.96,-0.09 3.95,-0.37 5.95,-0.82 1.73,-0.28 3.51,-0.69 5.34,-1.23 0.46,-0.18 0.87,-0.32 1.23,-0.41 0.37,-0.09 0.73,-0.23 1.09,-0.41 0.18,-0.09 0.39,-0.18 0.62,-0.27 0.23,-0.09 0.43,-0.18 0.61,-0.27 0.73,-0.55 1.23,-1.32 1.51,-2.33 0.09,-0.45 0.12,-0.86 0.07,-1.23 -0.04,-0.37 -0.07,-0.77 -0.07,-1.23l0 -1.64 -0.41 0 -5.89 0 -24.49 0 -22.99 0 -4.24 0 0 -8.62 0.27 -0.28c0.09,-0.09 0.18,-0.14 0.27,-0.14 0.46,-0.45 0.92,-0.73 1.37,-0.82l1.23 -0.82c0.18,-0.18 0.41,-0.27 0.69,-0.27l0.55 0 14.09 0 24.9 0 26.41 0 18.06 0 2.87 0 0 8.62 -0.55 0.28c-0.27,0.27 -0.68,0.59 -1.23,0.96 -0.45,0.27 -0.91,0.5 -1.36,0.69 -0.28,0.27 -0.46,0.41 -0.55,0.41l-15.05 0c0,0.64 -0.04,1.1 -0.14,1.37 -0.09,2.37 -1,4.47 -2.74,6.29 -1.18,1.28 -2.51,2.39 -3.97,3.35 -1.46,0.96 -2.97,1.89 -4.52,2.81 -2.74,1.55 -5.43,2.78 -8.07,3.69 -1.83,0.64 -3.7,1.14 -5.61,1.51 -1.91,0.37 -3.83,0.68 -5.74,0.96 -3.83,0.46 -7.53,1.42 -11.08,2.87 -0.73,0.27 -1.51,0.64 -2.33,1.1 -0.09,0.09 -0.16,0.14 -0.2,0.14 -0.04,0 -0.11,0.04 -0.2,0.14 -0.73,0.55 -1.46,1.14 -2.19,1.78 -0.73,0.64 -1.37,1.32 -1.91,2.05 -2.1,2.65 -3.01,5.56 -2.74,8.76 0.09,1.73 0.41,3.4 0.96,4.99 0.55,1.6 1.32,3.03 2.33,4.31 1.1,1.46 2.37,2.76 3.83,3.9 1.46,1.14 2.97,2.08 4.52,2.81 3.1,1.37 6.48,2.05 10.12,2.05l0.96 0 0 -7.8c0,-2.83 0.5,-5.38 1.51,-7.66 0.73,-1.64 1.64,-3.12 2.74,-4.44 1.09,-1.32 2.32,-2.53 3.69,-3.63 1,-0.73 2.03,-1.41 3.08,-2.05 1.05,-0.64 2.12,-1.28 3.22,-1.91 0.73,-0.46 1.48,-0.82 2.26,-1.1 0.77,-0.27 1.57,-0.55 2.4,-0.82 1.73,-0.46 3.51,-0.75 5.34,-0.89 1.83,-0.14 3.65,0.02 5.47,0.48 3.47,1 6.29,3.01 8.49,6.02 1.09,1.37 1.89,2.87 2.39,4.52 0.5,1.64 0.71,3.38 0.62,5.2 -0.18,3.47 -1.14,6.62 -2.87,9.44 -0.91,1.55 -1.98,2.94 -3.22,4.18 -1.23,1.23 -2.62,2.39 -4.18,3.49 -1.64,1.28 -3.38,2.44 -5.2,3.49 -1.82,1.05 -3.69,1.94 -5.61,2.67 -0.46,0.18 -0.94,0.34 -1.44,0.48 -0.5,0.14 -0.98,0.3 -1.44,0.48 1.37,3.47 2.46,7.12 3.28,10.95 0.55,2.83 1,5.66 1.37,8.48 0.37,2.83 0.86,5.66 1.51,8.49 0.73,2.73 1.66,5.38 2.8,7.94 1.14,2.55 2.63,4.88 4.45,6.98 2.28,2.65 4.9,4.95 7.87,6.91 2.96,1.96 6.09,3.44 9.37,4.45 2.92,0.82 5.88,1.18 8.89,1.1 3.01,-0.09 5.98,-0.55 8.9,-1.37 1,-0.27 1.94,-0.57 2.81,-0.89 0.86,-0.32 1.75,-0.66 2.67,-1.02 0.46,-0.18 0.91,-0.39 1.37,-0.62 0.46,-0.23 0.91,-0.43 1.37,-0.61 0.18,-0.09 0.3,-0.14 0.34,-0.14 0.04,0 0.16,-0.05 0.34,-0.14 0,-0.09 0.05,-0.14 0.14,-0.14 0.09,0 0.18,-0.05 0.28,-0.14 0.18,-0.09 0.34,-0.16 0.48,-0.2 0.14,-0.04 0.3,-0.11 0.48,-0.2 0.18,-0.18 0.37,-0.3 0.55,-0.34 0.18,-0.04 0.36,-0.16 0.55,-0.34 0.18,0 0.27,-0.05 0.27,-0.14l0.82 -0.41c0.27,-0.18 0.57,-0.39 0.89,-0.61 0.32,-0.23 0.61,-0.43 0.89,-0.61 0.73,-0.46 1.41,-0.92 2.05,-1.37 0.64,-0.46 1.32,-0.91 2.05,-1.37 1.64,-1.1 3.28,-2.19 4.93,-3.28 1.64,-1.1 3.38,-2.14 5.2,-3.15 2.19,-1.46 4.43,-2.85 6.71,-4.18 2.28,-1.32 4.6,-2.58 6.98,-3.76zm-94.69 -40.37c0.18,0 0.34,-0.02 0.48,-0.07 0.14,-0.04 0.25,-0.07 0.35,-0.07 1.91,0 3.79,-0.27 5.61,-0.82 1,-0.27 1.91,-0.59 2.74,-0.96 0.18,-0.09 0.55,-0.23 1.1,-0.41 1.28,-1 2.37,-2.14 3.28,-3.42 0.91,-1.28 1.55,-2.69 1.91,-4.24 0.18,-0.73 0.3,-1.51 0.34,-2.33 0.04,-0.82 -0.16,-1.59 -0.61,-2.32 -0.73,-1.64 -1.96,-2.74 -3.7,-3.28 -0.91,-0.37 -1.82,-0.55 -2.73,-0.55 -0.92,0 -1.83,0.09 -2.74,0.27 -0.46,0.09 -0.94,0.18 -1.44,0.27 -0.5,0.09 -0.98,0.23 -1.44,0.41 0,0 -0.18,0.09 -0.55,0.27 -1,0.82 -1.8,1.8 -2.4,2.94 -0.59,1.14 -0.94,2.4 -1.02,3.76l0 3.15 0 5.34 0 1.64 0 0.41 0.82 0zm10.4 -2.46c0.27,-0.18 0.45,-0.32 0.55,-0.41 0.09,-0.09 -0.09,0.05 -0.55,0.41zm-9.58 -46.25c-0.09,0 -0.16,0.02 -0.2,0.07 -0.05,0.04 -0.12,0.07 -0.21,0.07 0.55,-0.37 0.85,-0.53 0.89,-0.48 0.04,0.04 -0.11,0.16 -0.48,0.34zm63.35 107.82c-0.09,0.09 -0.14,0.14 -0.14,0.14l0.14 -0.14zm58.43 -25.86c0.18,1.55 0.18,3.05 0,4.51 -0.18,1.46 -0.55,2.87 -1.09,4.24 -0.73,2.1 -1.78,3.92 -3.15,5.47 -1.37,1.55 -2.92,2.92 -4.65,4.11 -4.11,2.74 -8.39,5.38 -12.86,7.94 -0.73,0.46 -1.46,0.84 -2.19,1.16 -0.73,0.32 -1.46,0.66 -2.19,1.02 -1,0.46 -2.03,0.85 -3.08,1.16 -1.05,0.32 -2.12,0.57 -3.22,0.75 -4.38,1 -8.82,1.28 -13.34,0.82 -4.52,-0.46 -8.82,-1.51 -12.93,-3.15 -3.92,-1.55 -7.25,-3.69 -10.01,-6.43 -2.39,-2.28 -4.38,-4.83 -6,-7.66 -1.62,-2.83 -2.92,-5.84 -3.95,-9.03 -0.91,-3.01 -1.59,-6.02 -2.01,-9.03 -0.41,-3.01 -0.68,-6.07 -0.82,-9.17 -0.14,-3.1 -0.16,-6.18 -0.07,-9.23 0.09,-3.06 0.14,-6.13 0.14,-9.24l0 -1.37 0 -25.45 0 -23.4 0 -5.48c0,-0.37 -0.14,-0.55 -0.41,-0.55l-4.79 0 -10.4 0c0,0 0,-0.41 0,-1.23 0,-0.82 0,-1.73 0,-2.73 0,-1 0,-1.96 0,-2.87 0,-0.91 0,-1.51 0,-1.78l0.55 -0.41c0.36,-0.27 0.91,-0.59 1.64,-0.96 0.73,-0.55 1.28,-0.91 1.64,-1.1 0.09,0 0.2,-0.04 0.34,-0.14 0.14,-0.09 0.3,-0.14 0.48,-0.14l9.44 0 25.45 0 5.74 0 0 8.62c0,-0.09 -0.14,0 -0.41,0.27 -0.09,0.09 -0.18,0.14 -0.27,0.14 -0.27,0.18 -0.55,0.36 -0.82,0.55 -0.27,0.18 -0.55,0.37 -0.82,0.55 -0.27,0.18 -0.55,0.34 -0.82,0.48 -0.27,0.14 -0.55,0.29 -0.82,0.48 -0.18,0.18 -0.41,0.27 -0.69,0.27l-10.94 0 0 2.05 0 22.44 0 20.25 0 3.28 0 3.42 0 11.36c0,0.91 0,1.8 0,2.67 0,0.87 0.04,1.75 0.14,2.67 0.18,3.28 0.55,6.55 1.09,9.78 0.55,3.24 1.42,6.46 2.6,9.65 1.1,2.83 2.48,5.5 4.18,8 1.69,2.51 3.67,4.77 5.95,6.78 3.01,2.65 6.62,4.6 10.81,5.88 4.01,1.37 8.19,2.19 12.52,2.46 4.33,0.27 8.55,-0.09 12.66,-1.1 1.37,-1.91 2.32,-3.99 2.87,-6.23 0.55,-2.23 0.73,-4.54 0.55,-6.91 0,-0.18 0.32,-0.46 0.96,-0.82 0.28,-0.18 0.59,-0.36 0.96,-0.55 0.82,-0.55 1.64,-1.1 2.46,-1.64 0.82,-0.55 1.64,-1.05 2.46,-1.51 0.82,-0.45 1.64,-0.94 2.46,-1.44 0.82,-0.5 1.64,-0.98 2.46,-1.44 -0.09,0 0.25,-0.2 1.03,-0.61 0.77,-0.41 1.16,-0.57 1.16,-0.48z"/>
    <path class="fil0" d="M280.64 41.05c-0.09,0.09 -0.14,0.14 -0.14,0.14 -0.18,0.18 -0.41,0.32 -0.68,0.41 -0.27,0.09 -0.5,0.23 -0.69,0.41 -0.27,0.18 -0.57,0.34 -0.89,0.48 -0.32,0.14 -0.62,0.29 -0.89,0.48l-2.05 0.82c-0.46,0.18 -0.94,0.39 -1.44,0.62 -0.5,0.23 -0.98,0.48 -1.44,0.75 -0.27,0.09 -0.57,0.2 -0.89,0.34 -0.32,0.14 -0.62,0.16 -0.89,0.07 -1.28,-0.18 -2.51,-0.64 -3.69,-1.36 -1.19,-0.73 -2.28,-1.55 -3.28,-2.46 -0.92,0.64 -1.87,1.23 -2.87,1.78 -1,0.55 -2.01,0.96 -3.01,1.23 -0.82,0.27 -1.69,0.48 -2.6,0.61 -0.91,0.14 -1.82,0.12 -2.73,-0.07 -1.83,-0.45 -3.54,-1.23 -5.13,-2.32 -1.59,-1.1 -3.03,-2.28 -4.31,-3.56 -1,-0.92 -1.96,-1.83 -2.87,-2.74 -0.91,-0.91 -1.87,-1.83 -2.87,-2.74 -1.55,-1.55 -3.12,-3.08 -4.72,-4.58 -1.59,-1.51 -3.17,-3.03 -4.72,-4.58 -1,-1 -2.03,-2.01 -3.08,-3.01 -1.05,-1 -2.12,-2.01 -3.22,-3.01 -1.55,-1.28 -3.1,-2.48 -4.65,-3.63 -1.55,-1.14 -3.24,-2.08 -5.07,-2.81 -0.82,-0.37 -1.64,-0.66 -2.46,-0.89 -0.82,-0.23 -1.69,-0.34 -2.6,-0.34 -0.27,-0.09 -0.37,-0.18 -0.27,-0.27 0.09,-0.27 0.27,-0.46 0.55,-0.55 1,-1.28 2.06,-2.6 3.15,-3.97 1.1,-1.37 2.14,-2.69 3.15,-3.97 0.18,-0.28 0.46,-0.5 0.82,-0.69 0.37,-0.18 0.68,-0.37 0.96,-0.55 0.28,-0.18 0.53,-0.32 0.75,-0.41 0.23,-0.09 0.43,-0.18 0.61,-0.28 0.28,-0.27 0.46,-0.41 0.55,-0.41 1.64,0.18 3.19,0.69 4.65,1.51 0.73,0.46 1.46,0.94 2.19,1.44 0.73,0.5 1.46,0.98 2.19,1.44 0.92,0.73 1.83,1.46 2.74,2.19 0.91,0.73 1.78,1.55 2.6,2.46 2.37,2.65 4.79,5.27 7.25,7.87 2.46,2.6 4.93,5.22 7.39,7.87 1.18,1.28 2.32,2.51 3.42,3.69 1.09,1.18 2.24,2.37 3.42,3.56 0.91,1 1.89,1.91 2.94,2.74 1.05,0.82 2.16,1.59 3.35,2.32 -0.27,-0.27 -0.53,-0.57 -0.75,-0.89 -0.22,-0.32 -0.48,-0.62 -0.75,-0.89 -0.46,-0.55 -0.77,-1.05 -0.96,-1.51 -0.45,-0.73 -0.87,-1.44 -1.23,-2.12 -0.37,-0.69 -0.78,-1.39 -1.23,-2.12 -1,-1.55 -1.96,-3.15 -2.87,-4.79 -0.91,-1.64 -1.82,-3.24 -2.74,-4.79 -0.73,-1.19 -1.46,-2.35 -2.19,-3.49 -0.73,-1.14 -1.55,-2.21 -2.46,-3.22 -1.28,-1.36 -2.73,-2.55 -4.38,-3.56 -1.64,-1 -3.38,-1.73 -5.2,-2.19l0.55 -0.41 1.23 -0.82c0.27,-0.18 0.57,-0.37 0.89,-0.55 0.32,-0.18 0.66,-0.32 1.03,-0.41 1.82,-0.64 3.6,-1.23 5.34,-1.78 1.73,-0.55 3.51,-1.09 5.34,-1.64 0.09,-0.09 0.18,-0.14 0.28,-0.14 1.36,0.09 2.6,0.64 3.69,1.64 1.1,1 2.01,2.01 2.74,3.01 0.73,0.91 1.41,1.87 2.05,2.87 0.64,1 1.18,2.01 1.64,3.01 0.64,1.1 1.21,2.21 1.71,3.35 0.5,1.14 1.07,2.26 1.71,3.35 0.82,1.64 1.64,3.31 2.46,4.99 0.82,1.69 1.64,3.35 2.46,4.99 1.37,2.83 3.19,5.27 5.47,7.32 2.28,2.05 4.93,3.53 7.94,4.45l-0.27 0.27zm166.11 108.51c-0.09,0 -0.07,-0.02 0.07,-0.07 0.14,-0.04 0.27,-0.11 0.41,-0.2 0.14,-0.09 0.25,-0.14 0.34,-0.14 0.09,0 0.05,0.04 -0.14,0.14 -0.45,0.37 -0.91,0.68 -1.36,0.96 -0.46,0.27 -0.92,0.59 -1.37,0.96 -1.37,0.91 -2.74,1.78 -4.11,2.6 -1.37,0.82 -2.78,1.59 -4.24,2.32 -0.18,0.09 -0.29,0.16 -0.34,0.2 -0.04,0.05 -0.16,0.12 -0.34,0.2 -0.46,0.18 -0.84,0.41 -1.16,0.69 -0.32,0.27 -0.66,0.55 -1.02,0.82l-1.23 0.82 -0.14 0c-0.18,0.18 -0.27,0.27 -0.27,0.27 -1,0.64 -1.94,1.25 -2.81,1.85 -0.87,0.59 -1.8,1.21 -2.81,1.85 -4.01,2.74 -8.02,5.36 -12.04,7.87 -4.01,2.51 -8.12,4.91 -12.32,7.19 -2.74,1.46 -5.52,2.78 -8.35,3.97 -2.83,1.19 -5.75,2.05 -8.76,2.6 -2.83,0.55 -5.63,0.75 -8.41,0.61 -2.78,-0.14 -5.5,-0.71 -8.14,-1.71 -2.74,-1 -5.31,-2.42 -7.73,-4.24 -2.42,-1.82 -4.49,-3.87 -6.23,-6.15 -1.55,-2.01 -2.76,-4.11 -3.63,-6.29 -0.87,-2.19 -1.55,-4.45 -2.05,-6.78 -0.5,-2.32 -0.89,-4.7 -1.16,-7.11 -0.27,-2.42 -0.55,-4.81 -0.82,-7.18 -0.37,-3.01 -0.8,-6.02 -1.3,-9.03 -0.5,-3.01 -1.16,-5.97 -1.98,-8.9 -1.55,-5.84 -3.83,-11.58 -6.84,-17.24 -3.56,4.83 -7.66,8.85 -12.31,12.04 -1.83,1.28 -3.74,2.46 -5.75,3.56 -2.01,1.1 -4.15,1.87 -6.43,2.33 -1.64,0.37 -3.33,0.53 -5.06,0.48 -1.73,-0.04 -3.42,-0.39 -5.06,-1.02 -3.28,-1.19 -6.07,-3.22 -8.35,-6.09 -2.28,-2.87 -3.79,-6 -4.52,-9.37 -0.46,-1.83 -0.68,-3.69 -0.68,-5.61 0,-1.91 0.09,-3.79 0.27,-5.61 0.45,-3.92 1.32,-7.43 2.6,-10.54 1.46,-3.46 3.24,-6.52 5.34,-9.16 2.37,-2.83 5.2,-5.25 8.48,-7.25 1.55,-1 3.15,-1.89 4.79,-2.67 1.64,-0.78 3.42,-1.3 5.34,-1.57 3.65,-0.55 7.03,-0.14 10.12,1.23 3.01,1.55 5.66,3.6 7.94,6.16 2.28,2.55 4.29,5.29 6.02,8.21 2.92,-6.38 4.11,-13.04 3.56,-19.98 -0.18,-1.83 -0.48,-3.65 -0.89,-5.48 -0.41,-1.82 -1.16,-3.51 -2.26,-5.06 -0.18,-0.18 -0.32,-0.34 -0.41,-0.48 -0.09,-0.14 -0.23,-0.2 -0.41,-0.2l-0.55 0 -6.71 0 -24.9 0 -22.71 0 -4.11 0 0 -8.62c0,0 0.05,-0.09 0.14,-0.28 0.09,-0.09 0.18,-0.14 0.28,-0.14 0.55,-0.45 1,-0.73 1.36,-0.82 0.18,-0.18 0.41,-0.32 0.69,-0.41 0.27,-0.09 0.5,-0.23 0.68,-0.41 0.18,-0.18 0.37,-0.27 0.55,-0.27l4.65 0 19.98 0 26.68 0 23.54 0 9.99 0 0 8.62 -0.41 0.28c-0.18,0.18 -0.41,0.34 -0.68,0.48 -0.28,0.14 -0.5,0.3 -0.69,0.48 -0.55,0.37 -1,0.59 -1.37,0.69 0,0.27 -0.18,0.41 -0.55,0.41l-10.81 0 0.41 0.82c1.37,4.01 1.94,8.1 1.71,12.25 -0.23,4.15 -0.94,8.23 -2.12,12.25 -1.18,3.74 -2.78,7.57 -4.79,11.49 -0.27,0.55 -0.55,1.07 -0.82,1.57 -0.27,0.5 -0.55,1.02 -0.82,1.57 -0.37,0.55 -0.64,1 -0.82,1.37 -0.09,0.09 -0.27,0.32 -0.55,0.68 -0.27,0.37 -0.36,0.59 -0.27,0.68 1,1.83 1.91,3.65 2.74,5.48l0.82 2.05c1.55,3.1 2.92,6.27 4.11,9.51 1.18,3.24 2.19,6.54 3.01,9.92 0.73,2.83 1.28,5.68 1.64,8.55 0.37,2.87 0.73,5.77 1.1,8.69 0.27,2.37 0.55,4.77 0.82,7.18 0.27,2.42 0.77,4.81 1.51,7.19 1.28,4.65 3.46,8.67 6.57,12.04 2.1,2.19 4.45,4.11 7.05,5.75 2.6,1.64 5.36,2.83 8.28,3.56 2.73,0.73 5.5,1 8.28,0.82 2.78,-0.18 5.54,-0.64 8.28,-1.37 1.55,-0.46 3.05,-0.96 4.52,-1.51 1.46,-0.55 2.92,-1.19 4.38,-1.91 0.37,-0.18 0.59,-0.32 0.69,-0.41l0.27 0c0.18,-0.18 0.5,-0.37 0.96,-0.55 0.18,-0.18 0.55,-0.37 1.09,-0.55l0.27 -0.27c0.18,0 0.37,-0.09 0.55,-0.28 0.37,-0.18 0.64,-0.37 0.82,-0.55 0.09,0 0.18,-0.04 0.27,-0.14 0.55,-0.37 0.87,-0.59 0.96,-0.69 0.37,-0.18 0.68,-0.39 0.96,-0.61 0.27,-0.23 0.59,-0.43 0.96,-0.61 0.27,-0.18 0.57,-0.39 0.89,-0.62 0.32,-0.22 0.61,-0.43 0.89,-0.61 0.09,0 0.18,-0.04 0.28,-0.14 0.55,-0.37 0.86,-0.59 0.96,-0.69 0.73,-0.45 1.48,-0.96 2.26,-1.5 0.77,-0.55 1.53,-1.05 2.26,-1.51 1.55,-1.1 3.12,-2.14 4.72,-3.15 1.6,-1 3.22,-2.01 4.86,-3.01 2.1,-1.28 4.22,-2.58 6.36,-3.9 2.14,-1.32 4.36,-2.53 6.64,-3.63zm-128.49 -35.03c0.46,-0.27 0.84,-0.57 1.16,-0.89 0.32,-0.32 0.66,-0.62 1.03,-0.89 0.73,-0.64 1.39,-1.28 1.98,-1.91 0.59,-0.64 1.16,-1.32 1.71,-2.05 1.18,-1.37 2.28,-2.87 3.28,-4.52 0.37,-0.46 0.66,-0.89 0.89,-1.3 0.23,-0.41 0.48,-0.84 0.75,-1.3 0.37,-0.55 0.59,-0.96 0.68,-1.23 0.18,-0.37 0.32,-0.59 0.41,-0.69 0.09,-0.09 0.04,-0.32 -0.14,-0.68 -0.73,-1.83 -1.5,-3.56 -2.32,-5.2 -0.82,-1.64 -1.82,-3.24 -3.01,-4.79 -1,-1.37 -2.17,-2.69 -3.49,-3.97 -1.32,-1.28 -2.85,-2.14 -4.58,-2.6 -1.28,-0.36 -2.74,-0.41 -4.38,-0.14 -0.45,0.09 -0.86,0.18 -1.23,0.28 -0.37,0.09 -0.78,0.22 -1.23,0.41 -2.55,2.28 -4.56,5.11 -6.02,8.48 -0.73,1.73 -1.28,3.51 -1.64,5.34 -0.37,1.83 -0.59,3.7 -0.68,5.61 -0.09,1 -0.12,1.96 -0.07,2.87 0.04,0.91 0.2,1.82 0.48,2.73 0.64,1.83 1.46,3.38 2.46,4.65 0.73,0.91 1.6,1.67 2.6,2.26 1,0.59 2.1,0.98 3.28,1.16 2.37,0.28 4.7,-0.09 6.98,-1.09 0.18,-0.09 0.35,-0.16 0.48,-0.2 0.14,-0.05 0.3,-0.12 0.48,-0.21 0,-0.09 0.04,-0.14 0.14,-0.14zm-8.07 -31.74c0.09,-0.09 0.18,-0.14 0.27,-0.14 0.27,-0.18 0.41,-0.3 0.41,-0.35 0,-0.04 -0.23,0.12 -0.69,0.48z"/>
   </g>
  </g>
 </g>
</svg>
